<?xml version="1.0" encoding="UTF-8"?>
<svg id="_图层_1" data-name="图层 1" xmlns="http://www.w3.org/2000/svg" viewBox="0 0 895.63 1319.39">
  <defs>
    <style>
      .cls-1 {
        fill: #edcf5e;
      }

      .cls-1, .cls-2, .cls-3, .cls-4, .cls-5, .cls-6, .cls-7, .cls-8, .cls-9, .cls-10, .cls-11, .cls-12, .cls-13, .cls-14, .cls-15, .cls-16, .cls-17, .cls-18, .cls-19, .cls-20, .cls-21, .cls-22, .cls-23, .cls-24, .cls-25, .cls-26, .cls-27, .cls-28, .cls-29, .cls-30, .cls-31, .cls-32, .cls-33, .cls-34, .cls-35, .cls-36, .cls-37, .cls-38, .cls-39, .cls-40, .cls-41, .cls-42, .cls-43, .cls-44, .cls-45, .cls-46 {
        stroke-width: 0px;
      }

      .cls-2 {
        fill: #070603;
      }

      .cls-3 {
        fill: #edcf5d;
      }

      .cls-4 {
        fill: #513124;
      }

      .cls-5 {
        fill: #945940;
      }

      .cls-6 {
        fill: #513224;
      }

      .cls-7 {
        fill: #050503;
      }

      .cls-8 {
        fill: #f3fa95;
      }

      .cls-9 {
        fill: #917133;
      }

      .cls-10 {
        fill: #955940;
      }

      .cls-11 {
        fill: #937234;
      }

      .cls-12 {
        fill: #090807;
      }

      .cls-13 {
        fill: #fbf1ee;
      }

      .cls-14 {
        fill: #937334;
      }

      .cls-15 {
        fill: #060604;
      }

      .cls-16 {
        fill: #edd05e;
      }

      .cls-17 {
        fill: #955a41;
      }

      .cls-18 {
        fill: #060504;
      }

      .cls-19 {
        fill: #080703;
      }

      .cls-20 {
        fill: #937335;
      }

      .cls-21 {
        fill: #090806;
      }

      .cls-22 {
        fill: #989851;
      }

      .cls-23 {
        fill: #927233;
      }

      .cls-24 {
        fill: #060605;
      }

      .cls-25 {
        fill: #513123;
      }

      .cls-26 {
        fill: #0a0905;
      }

      .cls-27 {
        fill: #f4fa95;
      }

      .cls-28 {
        fill: #503023;
      }

      .cls-29 {
        fill: #4f3023;
      }

      .cls-30 {
        fill: #faf0ee;
      }

      .cls-31 {
        fill: #a0908a;
      }

      .cls-32 {
        fill: #955a40;
      }

      .cls-33 {
        fill: #9a9a52;
      }

      .cls-34 {
        fill: #f9f8f8;
      }

      .cls-35 {
        fill: #523123;
      }

      .cls-36 {
        fill: #a2792a;
      }

      .cls-37 {
        fill: #fbfbfb;
      }

      .cls-38 {
        fill: #503123;
      }

      .cls-39 {
        fill: #050504;
      }

      .cls-40 {
        fill: #eccf5d;
      }

      .cls-41 {
        fill: #9c9c53;
      }

      .cls-42 {
        fill: #90573f;
      }

      .cls-43 {
        fill: #f4fb95;
      }

      .cls-44 {
        fill: #030302;
      }

      .cls-45 {
        fill: #eed05e;
      }

      .cls-46 {
        fill: #0c0b09;
      }
    </style>
  </defs>
  <g>
    <path class="cls-3" d="m555.34,831.02c50.6-.1,101.3.7,151.9-.2,3.9-.1,7.7-.3,11.5-.6,2.7-.3,3.3.9,3.4,3.4.8,23,1.6,45.9,2.6,68.9.2,3.4-1,3.7-3.9,3.8-39.5,1-78.9,3.2-118.3,5.4-14.6.8-29.3,1.4-43.9,2.1-2.8.1-5.6.4-8.2,1.7-.3-1.3-.8-2.5-1-3.8-1.8-10.8-2-21.8-2.6-32.7-.8-14.9-1-29.9-1.4-44.8-.1-3.2.9-6.1,4.9-6.3.8,2.5,2.7,3.1,5,3.1Z"/>
    <path class="cls-39" d="m556.74,823.92c52,.2,103.9-1.5,155.9-.4,8.8.2,8.8.1,9.6-8.4.6-6.2,2.6-8.2,8.7-8.4,8.4-.3,16.9-.7,25.4-1,1.8-.1,3.2-.1,4.2-2,3.7-7.2,9.6-12.7,14-19.4,12.2-18.5,29.7-18,47.6-10.2,3.2,1.4,5.1,4.2,6.4,7.4,2,4.8,2.9,9.9,3.6,15,.4,3.1,1.4,3.7,4.4,3.3,14.9-1.8,29.8-1.6,44.8-.1,6.1.6,9.5,3.5,10.9,9.2,2.7,11.1,3.9,22.3,3.2,33.7-.5,8.1-4.1,12.3-12.1,14.5-7.2,2-14.7,3-22.2,2.9-3.9-.1-5.4,1.3-5.4,4.9,0,1.2-.1,2.4-.3,3.5-1.4,8.7-2.1,17.7-9.9,23.7-.6.5-1,1-.5,2,4.8,9.7,2.9,19.8,1.4,29.8-1.2,8-6.7,12.7-14.7,13.1-13.6.6-26.3-3-38.4-9.1-2.6-1.3-5.1-3.2-6.7-5.8s-3.3-2.3-5.8-1.6c-13.2,3.7-26.5,7.7-40.3,9.1-9.7,1.1-14.4-2.5-15-12-.2-3.7-1.7-3.7-4.5-3.5-17.9,1.1-35.9,2.1-53.8,3.1-16.6.9-33.3,1.8-49.9,2.5-20.6.9-41.3,1.7-61.9,2.4-5.6.2-6.5-1.4-4.9-6.6,2.6-1.3,5.3-1.6,8.2-1.7,14.6-.6,29.3-1.3,43.9-2.1,39.4-2.2,78.8-4.4,118.3-5.4,2.8-.1,4-.4,3.9-3.8-1-23-1.8-45.9-2.6-68.9-.1-2.5-.7-3.7-3.4-3.4-3.8.3-7.7.5-11.5.6-50.6.9-101.3,0-151.9.2-2.4,0-4.3-.6-5.1-3.1.6-3.9,3.5-3.8,6.4-4Zm282.8,76.1c-.3-3-2.4-4-5.4-3.6-12.1,1.7-24.1,1.5-35.8-2.8-2.1-.8-3.2-.3-4.6,1.3-3.7,4.2-4.1,8.9-3.2,14,.6,5.8,3.7,9.9,9,12.2,9.2,4,18.9,6.1,28.9,6.8,3,.2,6,0,8.1-2.8,3.9-8.1,4.2-16.6,3-25.1Zm-37.7-15.1c11.6,4,23.4,5.1,35.3,1.2,1.6-.5,3.2-1,3.6-2.9,2.6-.6,3.2-2.8,3.7-4.9.9-4,1.7-8.1,2.4-12.2,1.1-6.7.8-7.3-5.7-7.9-13.6-1.3-27.2-1.7-40.9-1.1-6.8.4-7.8,1.4-7.6,8.1.2,4.1.5,8.3,2.7,12,.3,4.1,2.8,6.7,6.5,7.7Zm84.8-45.1c0-9-.5-17.9-2.3-26.8-.7-3.5-2.6-4.9-6.1-5.1-13.2-.6-26.5-1.6-39.8-.3-3.5.3-4.3,1.4-4.2,4.8.3,10.4.2,20.9.2,31.4-4,8-4,8.2,4.6,8,12.7-.2,25.3-.9,37.9-2.9,1.2-.1,2.4-.3,2.8-1.6,5.2.3,6.9-2.4,6.9-7.5Zm-93.2-20.2c-1.7,6.8,1.2,12.7,3.7,18.6.8,1.9,2.2,3.3,4.1,4.1,6.3,2.5,12.7,3.5,19.5,2.9,3.1-.3,4.6-1.7,4.7-4.7.8-17.7.4-35.3-4-52.6-1.1-4.4-3.7-6.6-8-7.8-15.4-4.2-22.7-1.7-31.7,11.3-4.6,6.7-10.4,12.6-14.2,19.9-1.3,2.5-3.7,3.7-6.7,3.7-8.5.1-16.9,1.5-25.4.9-3.1-.2-3.9,1-3.9,4,0,21.2,2.1,42.3,2.4,63.4.2,9.9.5,19.7.7,29.5.1,7.6.5,8.1,8,7.3,10.4-1.2,20.6-3.7,30.8-6.1.5-.1,1-.2,1.5-.2,5.8-.2,7-3.5,6.6-8.8-.5-6.3,1.4-12.2,6.4-16.5,2-1.7.6-2.9.1-4.3-2.6-6.9-3.8-14-3.1-21.4.7-7.4,3.2-12.9,12.6-13.5-5.5-4.6-7.7-9.7-8.3-15.8-.6-6-2.3-11.9,2.4-17,1.6.5,2.1,1.6,1.8,3.1Z"/>
    <path class="cls-32" d="m782.84,816.32c-7.3,6-8.7,14.1-7.2,23,.3,1.6.6,3.3,1.3,4.8,2.1,4.9,3.3,9.2,1,14.9-1.8,4.3.2,9.8,1.8,14.5,2.1,6.2,1.6,11.9-.6,18-2.6,7.3-5.9,14.5-5.8,22.5-10.2,2.4-20.4,5-30.8,6.1-7.5.8-7.9.3-8-7.3-.2-9.9-.5-19.7-.7-29.5-.3-21.2-2.4-42.2-2.4-63.4,0-3,.7-4.2,3.9-4,8.5.6,16.9-.9,25.4-.9,3,0,5.4-1.2,6.7-3.7,3.8-7.3,9.6-13.2,14.2-19.9,9-13,16.3-15.5,31.7-11.3,4.3,1.1,6.9,3.4,8,7.8,4.4,17.3,4.8,34.9,4,52.6-.2,3-1.6,4.4-4.7,4.7-6.8.6-13.2-.3-19.5-2.9-1.9-.8-3.3-2.2-4.1-4.1-2.5-5.9-5.4-11.8-3.7-18.6.4-1.5-.2-2.6-1.7-3.1-2.7-4.6-5.9-2.6-8.8-.2Z"/>
    <path class="cls-5" d="m834.44,843.92c0-10.5.1-20.9-.2-31.4-.1-3.4.7-4.5,4.2-4.8,13.3-1.3,26.5-.4,39.8.3,3.5.1,5.4,1.5,6.1,5.1,1.8,8.9,2.3,17.8,2.3,26.8,0,4.9-1.7,7.7-6.9,7.4-15.2-.1-30.2-1.9-45.3-3.4Z"/>
    <path class="cls-5" d="m800.94,876.72c-2-.6-3.8-.6-5.6.6-2.2-3.7-2.6-7.9-2.7-12-.2-6.7.8-7.8,7.6-8.1,13.7-.6,27.3-.2,40.9,1.1,6.5.6,6.9,1.2,5.7,7.9-.7,4.1-1.4,8.2-2.4,12.2-.5,2-1.2,4.2-3.7,4.9-13.6-.1-26.8-3-39.8-6.6Z"/>
    <path class="cls-5" d="m802.84,914.12c-4-1.8-7.7-4.6-12.2-5.3-.9-5.1-.5-9.8,3.2-14,1.4-1.6,2.5-2.1,4.6-1.3,11.6,4.3,23.7,4.5,35.8,2.8,3-.4,5,.6,5.4,3.6,1.1,8.7.8,17.2-3.1,25.2-12-1.3-22.8-6.2-33.7-11Z"/>
    <path class="cls-6" d="m789.24,833.42c.6,6.1,2.8,11.2,8.3,15.8-9.4.6-11.9,6.1-12.6,13.5-.7,7.5.5,14.5,3.1,21.4.5,1.4,1.9,2.6-.1,4.3-5,4.2-6.9,10.2-6.4,16.5.5,5.3-.8,8.6-6.6,8.8-.5,0-1,.1-1.5.2-.2-8,3.2-15.2,5.8-22.5,2.2-6.1,2.7-11.8.6-18-1.6-4.6-3.6-10.2-1.8-14.5,2.3-5.7,1.1-10-1-14.9-.7-1.5-1-3.2-1.3-4.8-1.5-8.9-.1-16.9,7.2-23,2.7-2.2,6-4.3,8.7.3-4.6,5.1-2.9,11-2.4,16.9Z"/>
    <path class="cls-38" d="m837.24,886.32c-11.9,3.9-23.7,2.7-35.3-1.2-3.7-1.2-6.2-3.8-6.5-7.9,1.7-1.2,3.5-1.2,5.6-.6,13,3.7,26.1,6.5,39.7,6.7-.4,2-2,2.4-3.5,3Z"/>
    <path class="cls-38" d="m828.54,927.92c-10-.7-19.7-2.7-28.9-6.8-5.3-2.3-8.4-6.4-9-12.2,4.5.7,8.1,3.5,12.2,5.3,10.9,4.7,21.7,9.6,33.7,10.9-2.1,2.7-5.1,3-8,2.8Z"/>
    <path class="cls-29" d="m877.04,849.02c-12.5,1.9-25.2,2.6-37.9,2.9-8.6.1-8.6,0-4.6-8,15,1.5,30.1,3.2,45.2,3.4-.5,1.4-1.6,1.5-2.7,1.7Z"/>
  </g>
  <g>
    <path class="cls-45" d="m347.05,1154.73c-18.1-8.9-35.8-18.4-51.6-31-7.2-5.8-14.5-11.6-20.6-18.7-.7-.7-1.4-1.5-2.5-1.4.9-5.1-1-9.9-2.4-14.6-6.1-20.1-9.2-40.8-10-61.5-.8-17.9-3.1-35.7-3.9-53.7-.6-12.9-3.6-25.7-4.8-38.6-1.5-16.3-.7-32.6-.7-48.9,0-37.4,6.8-73.8,16.8-109.7,2.4-8.6,5.9-16.9,9.8-25,10.4,25.3,28.9,44.4,48.4,62.6,14.2,13.3,29.5,25.3,44.6,37.6,25.4,20.7,46.4,45.2,63.8,72.9,8.5,13.6,17.2,27,25.8,40.4.2.4.8.5,1.2.8,2.8,4.9,4,10.3,5.7,15.6,2.5,7.7,3.5,8.5,11.6,8.3,1.6,8.3,3.6,16.6,6.5,24.5,1.9,5.1,6.1,6.3,12,4.1,12.7-4.6,23.6-12.3,34.3-20.1,18.1-13.3,33.6-29.1,45.2-48.5,1.2-1.9,1.7-4.9,4.9-5,3.4,23.4,13.1,44.6,23.4,65.5,3.6,7.3,7.4,14.5,9.7,22.4,3.4,11.7,4,23.5,2,35.5-2.6,15.2-6.6,29.9-14.2,43.4-7.5.5-14.9.6-22.4-.5-7-1-14-1.5-21.2.2-13.3,3.1-26.8,5.2-40.2,7.5-16.9,2.9-34,4.1-51.1,5.4-23.8,1.8-47.5,1.9-71.1-1.9-10.9-1.8-21.8-3.3-32.8-2.6-5.6.3-9.9,2.6-12.3,7.9-2.5,5.4.4,9.2,3.6,13,1.6,1.9,3.6,3.6,5,5.6,5.5,7.9,4.9,10.4-3.3,15.4-1.9-4.1-6.1-5-9.2-6.9Z"/>
    <path class="cls-15" d="m454.55,949.83c-14.9-33.9-37.3-62.5-62.5-89.1-37.4-39.6-73.8-80.1-103.8-125.8-.3-.5-.8-1-1.5-1.7-3.7,6.2-7.3,12.2-9.5,18.8-3.9,8.1-7.4,16.3-9.8,25-10,35.9-16.9,72.3-16.8,109.7,0,16.3-.8,32.6.7,48.9,1.2,12.9,4.2,25.7,4.8,38.6.9,17.9,3.2,35.7,3.9,53.7.8,20.8,3.9,41.5,10,61.5,1.4,4.7,3.2,9.4,2.4,14.6-6.1,3.6-9.3,2.4-11.5-4.3-6.1-19.1-9.8-38.8-11.4-58.7-2.5-31.5-5.5-63-8.8-94.4-1.7-15.3-2.7-30.6-1.9-45.9.3-5.1-1.3-7.8-6.2-8.8-22.8-12.2-42.7-28.1-61.4-45.8-8.6-8.1-16.5-16.8-24.6-25.2-5.7-5.9-13-4.7-16,3-2.1,5.3-2.5,11-2,16.7.4,5.3,1.1,10.6,1.6,15.9.3,3.3-1,6.1-4.6,5.4-7.8-1.6-14.4-.2-20,5.7-6.8,7.2-9.3,16-10.1,25.4-1.2,14.1,1.1,27.9,4.9,41.4,2.2,7.7,1.4,9.3-5.9,12-3.8,1.4-5.4,4.1-6.2,7.7-2.2,9.6-.2,18.8,2.3,28,5,18.5,12,36.2,20,53.5.8,1.8,1.7,3.6,3.1,5.1,24.2,24.5,49.6,47.4,77.5,67.5,23.7,16.7,47.4,33.8,75.1,43.6,24.3,8.6,49.1,16.3,75,19,3.1,1.4,6.3,3.1,4.9,7.3-1.3,4-5,3.9-8.4,3.8-.5,0-1,0-1.5-.1-39.1-4.4-75.9-16.2-109.6-36.2-60.1-35.6-111.2-81.9-156-135.2-26.9-31.9-48.1-66.8-59.3-107.5-8.2-29.8-15-59.4-9.4-90.5,3.8-21.1,10.1-40.9,24-57.8,8.1-9.8,18.2-14.7,30.8-14.7,14.4,0,26.4,6.2,37.7,14.2,20.8,14.8,37.3,34.1,54.5,52.7,25.4,27.4,51.4,54.1,83.6,73.8,1.9,1.2,3.7,2.7,6.2,3.1,1-46.2,9-90.7,25.7-133.5-37.7,2.2-61.9-25.6-75.6-54.5-3-6.3.2-10.9,7-10.5,17.6,1,29.6-7.9,39.2-21.4,1.8-2.5,1.7-4.2.2-7-12.2-22.7-17.9-46.9-15.5-72.6.9-10.5,5.4-12.6,14.8-7.6,10.6,5.5,21.5,9.5,33.6,10.3,28.5,1.9,51.3,21.4,57.4,49.3.9,4.1,2.2,4,5.5,3.1,9.6-2.7,19.4-5.2,29.5-4.1,18.9,2.1,37.5,5.6,55.3,12.6,26.7,10.6,53,22.3,79.5,33.5,26.6,11.3,53.8,21.3,80.8,31.6,30.7,11.7,49,35.9,58.7,65.9,7.5,23.2,6.9,47.7,2.9,71.8-5.4,31.9-19.4,59.3-44,80.7-3.4,2.9-4.3,5.4-3.4,9.7,4.9,23.5,13.9,45.5,25.2,66.5,17.3,31.9,15.9,63.9,2.3,96.2-3.5,8.2-8.4,15.8-15.4,21.8-1.3,1.2-3,2.7-4.8,1.2s-.9-3.5,0-5.4c1.5-3.1,3.5-6,4.1-9.5,7.7-13.5,11.6-28.2,14.2-43.4,2.1-12,1.5-23.8-2-35.5-2.3-7.9-6.1-15.1-9.7-22.4-10.3-20.9-19.9-42.1-23.4-65.5.6-2.8-.1-3.5-2.6-1.8-16.7,11.1-34.7,19.6-52.6,28.4-14.5,7.1-29.9,11.7-45.1,17.1-1,.4-1.8.9-2.7,1.3-8.1.2-9.1-.6-11.6-8.3-1.7-5.3-2.8-10.8-5.7-15.6-.9-6-4-11.2-6.1-16.3Zm-245.3-255.1c-2.6.5-5.3.5-8,.8-.6.7-.2,1.4.3,2.1,7.6,11.6,15.7,22.7,26.8,31.2,8.9,6.8,18.9,10.9,30.3,10.6,8.8,1.8,10.6,1.2,15.3-5.7,1.1-1.5,1.9-3.4,3.4-4.3,5.5-3.3,3.8-7.2,1.7-11.7-3.5-7.4-6-15.3-6.9-23.4-1.8-16,3.4-28.8,18-37.6-6.2-3.1-12.1-5.6-18.5-6.6-9.4-1.6-16.1,2.9-21.4,10-3.1,4.2-5.6,9-8.4,13.5-8.7,10.2-18.9,18.2-32.6,21.1Zm81.1-46.8c3.2,1.7,5.6,2.7,8.8-.2,2.6-2.4,6.3-2.9,9.9-3,1.4,0,3,0,4.4-.4,6.1-1.6,6.6-2.4,4.5-8.3-4.7-13.2-11.8-24.5-24.5-31.5-6.6-5.3-14.4-7.1-22.4-7.3-14.2-.4-27.7-3-41.2-10.9-.3,23.2,3.5,44.5,13.2,65.1,2.1-2,3.8-3.5,5.5-5.1,14.3-9.3,28.2-6,41.8,1.6Zm-190.6,377.7c.9-.8.3-1.6-.2-2.3-6.2-14.8-11.7-29.8-15.9-45.4-2.1-7.5-2.3-15.2-1.5-22.8.7-6.2,3.2-11.7,9.9-13.6,3.8-1.1,4-3,2.9-6.2-4.2-12.8-6.5-26.1-5.7-39.7.7-13.1,3.7-25.4,14.6-34.2,5.3-4.3,11.1-6.7,18-5,3.8,1,3.2-1.3,2.9-3.6-1.1-7.6-1.1-15.3-.5-22.9.7-8.7,4.8-15.2,14-17.1-.2-.5-.1-.9-.3-1.1-16-16.9-31.1-34.8-50.3-48.4-7.7-5.5-15.7-10.1-25.2-11.6-11.5-1.8-20.7,1.6-28.2,10.9-14.2,17.7-19.2,38.4-22.1,60.1-3.7,26.7,3.6,51.8,10.3,77.1,10.7,40.4,32.5,74.4,59,105.9,5.5,6.5,10.8,13.1,17,18.9.5.4,1.2,1.2,1.3,1Zm208.2-369.7c-2.7.6-3.2,2.6-3.1,4.9.1,4,.8,7.9,2.1,11.7,4.1,12.3,11.3,22.5,20.4,31.4,2.4,2.3,2,3.8-.4,5.5-3.4,0-5.9-1.8-8.1-4.1-4.4-4.6-8.7-9.3-13.1-14-4-7-9.8-12.9-11.7-21.1-.7-2.8-2.5-.6-3.3.2-4.3,4-7,9-7.4,14.8-.6,9.2,1.4,18,6.1,26,1.4,7,5.3,12.9,9.1,18.7,20.3,30.7,43.7,59.1,68.2,86.6,20.4,22.9,42.2,44.5,61.3,68.5,21,26.3,36.7,55.4,47.2,87.3,1.6,4.8,3.3,5,7.6,3.6,34.2-11.3,66.5-26.5,95.9-47.3,27.9-19.8,42.3-48,48.1-81.1,4.2-24.2,1.8-48.1-3.3-71.9-.3-1.5-.8-2.9-1.6-4.2-13.9-23-30.5-42.3-57.5-51.2-49.3-16.3-96.2-38.7-144.1-58.6-19.7-8.2-40.1-13.2-61.3-15.1-9.6-.9-18.8,1.9-27.9,4.5-8,.3-15.6,3-23.2,4.9Z"/>
    <path class="cls-11" d="m274.55,1105.23c6.1,7.1,13.3,12.9,20.6,18.7,15.8,12.6,33.5,22.1,51.6,31,3.4,1.7,7.6,2.6,9.4,6.7-4.9,3.3-10.5,5.3-15.1,9.1-25.9-2.7-50.6-10.4-75-19-27.7-9.7-51.4-26.8-75.1-43.6,12.1-17.3,24.8-34.1,32.7-54,9.2-23.2,14.1-47,14.6-71.9.4-24.4-2.4-48.5-4.9-72.6-.6-5.9-1.7-11.9-1.1-17.9,4.9.9,6.5,3.7,6.2,8.8-.8,15.4.3,30.7,1.9,45.9,3.3,31.4,6.3,62.9,8.8,94.4,1.6,20,5.3,39.6,11.4,58.7,2.1,6.8,5.4,7.9,11.5,4.3,1.2,0,1.9.7,2.5,1.4Z"/>
    <path class="cls-23" d="m459.55,965.23c-8.6-13.5-17.3-26.9-25.8-40.4-17.4-27.7-38.4-52.2-63.8-72.9-15.1-12.3-30.4-24.3-44.6-37.6-19.6-18.2-38-37.3-48.4-62.6,2.2-6.7,5.7-12.6,9.5-18.8.6.7,1.2,1.2,1.5,1.7,30,45.8,66.4,86.2,103.8,125.8,25.2,26.7,47.6,55.3,62.5,89.1,2.4,5.4,5.5,10.6,6.4,16.6-.4-.3-.9-.5-1.1-.9Z"/>
    <path class="cls-14" d="m575.95,949.93c-11.6,19.4-27,35.3-45.2,48.5-10.8,7.8-21.7,15.5-34.3,20.1-5.9,2.2-10.1,1-12-4.1-2.9-8-4.9-16.2-6.5-24.5.9-.5,1.8-1,2.7-1.3,15.2-5.3,30.6-9.9,45.1-17.1,17.9-8.8,35.9-17.4,52.6-28.4,2.5-1.6,3.2-1,2.6,1.8-3.2.2-3.8,3.1-5,5Z"/>
    <path class="cls-27" d="m343.45,735.53c25.4,34.4,61.6,51.8,100.6,65,23,7.8,46.5,13.7,70.6,16.9,16.2,2.1,32.4,1.3,48.7-.4,10.4-1,20.4-2.9,29.5-8.1,13.6-7.7,17.3-18.8,14-35.3-5-25.4-22.6-39.1-44.8-46.5-52.5-17.5-103.9-38.1-155.1-59.1-14.1-5.7-28.5-10.2-43.8-11.1-.5,0-1.1-.2-1.5-.1-11.3,3.5-20.5-3.1-30.5-6,9.1-2.6,18.3-5.4,27.9-4.5,21.2,1.9,41.6,6.9,61.3,15.1,47.8,20,94.8,42.3,144.1,58.6,27,9,43.6,28.3,57.5,51.2.8,1.3,1.3,2.8,1.6,4.2,5,23.8,7.5,47.7,3.3,71.9-5.7,33.2-20.2,61.4-48.1,81.1-29.4,20.8-61.7,36-95.9,47.3-4.4,1.4-6,1.2-7.6-3.6-10.5-31.9-26.2-61-47.2-87.3-19.1-24-40.9-45.6-61.3-68.5-24.4-27.5-47.9-55.8-68.2-86.6-3.8-5.8-7.7-11.7-9.1-18.7,2.5-1.5,1.7-4.4,2.6-6.5,1.4-3.1,2.7-6.3,4-9.5,1.9-4.4,4.9-6.4,9.6-3.8,4.4,4.6,8.7,9.3,13.1,14,2.2,2.3,4.7,4.1,8.1,4.1,3.1,10.3,10.3,18.1,16.6,26.2Zm187.5,154.3c-.5-2.4.8-4.5,1.4-6.7,2.7-8.1,4.2-16.5,4.3-25,.1-3.6-.1-8.3-4.5-8.9-5-.7-5.9,4.3-6.5,7.9-1.1,7.2-1.3,14.6-3.7,21.6-.5,1.7-.5,3.7-2.8,5-2-7.2-4.4-14-7.3-20.7-1.9-4.4-3.5-9-7.5-12.2-1.4-1-2.9-2-4.6-1.4-2,.7-2.4,2.6-2.6,4.5-.4,3.4.9,6.5,2.2,9.6,3.8,8.9,7.6,17.8,9.2,27.4.2,1.4.4,2.7.5,4,.2,1.6.1,3.2-1.6,3.8-2.1.7-2.4-1.4-3-2.6-3.9-8.7-8.6-16.9-13.9-24.8-3.6-5.4-7.4-7.5-10.3-5.8-3,1.7-3,5.8.4,11.7,4.3,7.5,9.3,14.6,12.7,22.6.7,1.6,2.8,3.4,1,4.9-1.5,1.3-3.4-.4-5-1.1-11.1-5-20.3-12.7-29-21-1.4-1.4-2.8-2.8-4.3-4.1-2.1-1.7-4.6-2.5-6.9-.7-2.2,1.7-2.3,4.2-1.2,6.8.8,2.1,2.1,3.8,3.6,5.4,10,10.3,21.2,18.6,34.2,24.8,9,4.3,16.9,4.4,24.7-2.9,6-5.6,6.3-5.2,9.4,2.6.9,2.3,1.9,4.6,2.9,6.9,1.2,2.6,3.3,4.2,6.2,4.5,12.7,1.2,25.3,1.5,37.5-3,3.7-1.4,8.7-2.7,7.1-7.9s-6.2-2.8-9.9-2.2c-5,.8-9.9,2.5-16.1,1.8,4.9-4,9.1-7.4,13.2-10.9,2-1.7,4.1-3.5,4.3-6.5.1-1.9.4-3.9-1.6-4.9-2.3-1.1-4.7-1-6.7.5-3.4,2.6-6.7,5.5-10.1,8.1-3.8,2.9-7.7,5.8-11.7,8.5-1.3.9-3.1,2.9-4.5.1-1.1-2-2.1-4,1.1-5.7,9.4-5.2,16.2-13.3,22.3-21.9,2.3-3.2,5.4-7.5,1.6-10.7-3.9-3.3-7.2.8-10,3.6-5,4.9-8.4,11.3-14.5,15h0Z"/>
    <path class="cls-16" d="m113.35,1040.63c-1.4-1.5-2.3-3.3-3.1-5.1-8.1-17.3-15.1-35-20-53.5-2.5-9.2-4.6-18.4-2.3-28,.8-3.6,2.4-6.3,6.2-7.7,7.3-2.7,8.1-4.2,5.9-12-3.8-13.6-6-27.3-4.9-41.4.8-9.4,3.3-18.2,10.1-25.4,5.6-5.9,12.2-7.3,20-5.7,3.6.8,4.9-2.1,4.6-5.4-.5-5.3-1.2-10.6-1.6-15.9-.5-5.7,0-11.4,2-16.7,3-7.7,10.4-8.8,16-3,8.2,8.4,16.1,17.1,24.6,25.2,18.7,17.6,38.6,33.6,61.4,45.7-.7,6,.5,12,1.1,17.9,2.6,24.2,5.4,48.2,4.9,72.6-.5,24.9-5.4,48.8-14.6,71.9-7.9,19.9-20.6,36.7-32.7,54-27.9-20.2-53.4-43.1-77.6-67.5Z"/>
    <path class="cls-41" d="m327.05,703.93c-9.2-8.9-16.3-19.2-20.4-31.4-1.2-3.8-2-7.7-2.1-11.7-.1-2.3.4-4.3,3.1-4.9,7.7-1.8,15.3-4.5,23.3-4.8,10,2.9,19.2,9.4,30.5,6,.5-.1,1,.1,1.5.1,15.3.9,29.8,5.4,43.8,11.1,51.2,21,102.5,41.6,155.1,59.1,22.3,7.4,39.8,21.1,44.8,46.5,3.3,16.5-.4,27.5-14,35.3-9.1,5.2-19.1,7-29.5,8.1-16.2,1.7-32.5,2.5-48.7.4-24.1-3.2-47.6-9.1-70.6-16.9-39.1-13.2-75.3-30.6-100.6-65-6.2-8.4-13.3-16.2-16.4-26.5,2.5-1.7,2.8-3.2.2-5.4Zm258.6,46.9c.6-2.8-1.4-3.9-3.5-4.7-8.2-3-16.9-3.6-25.4-5.2-62.3-12-122.3-30.3-177.2-63.5-5.8-3.5-11.3-7.6-17.6-10.3-1.8-.9-3.8-1.8-5.4.2-1.4,1.9-.4,3.7.7,5.5,2.1,3.1,4.8,5.6,7.8,7.7,21,14.7,43.9,25.7,67.7,35,39.5,15.4,80,27.1,121.9,34,8.9,1.4,17.8,2.4,27.2,3.7,1.4,0,3.3-.2,3.8-2.4Z"/>
    <path class="cls-30" d="m98.45,1024.83c-6.2-5.8-11.5-12.4-17-18.9-26.5-31.5-48.3-65.5-59-105.9-6.7-25.4-13.9-50.4-10.3-77.1,2.9-21.7,7.9-42.5,22.1-60.1,7.5-9.4,16.7-12.7,28.2-10.9,9.5,1.5,17.5,6.2,25.2,11.6,19.2,13.6,34.2,31.5,50.3,48.4.2.2.2.6.3,1.1-9.2,2-13.3,8.4-14,17.1-.6,7.6-.6,15.3.5,22.9.3,2.3.9,4.6-2.9,3.6-6.9-1.7-12.7.7-18,5-10.8,8.8-13.8,21.1-14.6,34.2-.8,13.6,1.4,26.8,5.7,39.7,1.1,3.2.9,5.1-2.9,6.2-6.8,1.8-9.3,7.4-9.9,13.6-.7,7.6-.5,15.3,1.5,22.8,4.1,15.5,9.7,30.6,15.9,45.4-.4.3-.7.7-1.1,1.3Z"/>
    <path class="cls-8" d="m293.15,616.83c-1,6.4-4.2,10.9-9.8,14-8.4,4.6-18,5.6-26.6,9.4-3.1,1.4-7.2,1.7-8.2,6.1-1.7,1.5-3.3,3.1-5.5,5.1-9.7-20.6-13.5-41.9-13.2-65.1,13.5,7.9,27,10.5,41.2,10.9,8,.2,15.9,2.1,22.4,7.3,0,4.1.5,8.2-.3,12.3Z"/>
    <path class="cls-8" d="m256.85,696.43c6.5,12.5,7,25.6,3,39-.4,1.2-.7,2.5-1,3.8-11.5.3-21.4-3.8-30.3-10.6-11.2-8.5-19.3-19.6-26.8-31.2-.5-.7-.9-1.4-.3-2.1,2.7-.2,5.4-.3,8-.8,13.6-2.7,23.7-10.6,32.4-20.9,5.7,7.1,10.6,14.7,15,22.8Z"/>
    <path class="cls-33" d="m250.35,659.93c5.3-7,12-11.5,21.4-10,6.4,1.1,12.3,3.5,18.5,6.6-14.6,8.8-19.8,21.6-18,37.6.9,8.2,3.4,16,6.9,23.4,2.1,4.5,3.8,8.3-1.7,11.7-1.5.9-2.4,2.8-3.4,4.3-4.7,6.8-6.5,7.5-15.3,5.7.3-1.3.6-2.5,1-3.8,4.1-13.4,3.6-26.4-3-39-4.2-8-9.1-15.7-14.9-22.8,2.7-4.6,5.2-9.3,8.5-13.7Z"/>
    <path class="cls-33" d="m318.05,636.03c2.1,6,1.6,6.7-4.5,8.3-1.4.3-2.9.3-4.4.4-3.6.2-7.3.6-9.9,3-3.2,3-5.7,1.9-8.8.2-13.6-7.6-27.5-11-41.8-1.6,1-4.4,5.1-4.7,8.2-6.1,8.6-3.8,18.2-4.7,26.6-9.4,5.6-3.1,8.7-7.6,9.8-14,.7-4.2.2-8.2.2-12.3,12.7,7.1,19.8,18.3,24.6,31.5Z"/>
    <path class="cls-22" d="m283.25,685.13c.3-5.8,3.1-10.8,7.4-14.8.9-.8,2.6-3,3.3-.2,1.9,8.2,7.7,14.1,11.7,21.1-4.7-2.6-7.7-.7-9.6,3.8-1.4,3.1-2.6,6.4-4,9.5-.9,2.2,0,5-2.6,6.5-4.7-8.1-6.7-16.8-6.2-25.9Z"/>
    <path class="cls-30" d="m99.45,1023.43c.5.8,1.1,1.5.2,2.3,0,.1-.8-.7-1.2-1.1.4-.4.7-.8,1-1.2Z"/>
    <path class="cls-36" d="m530.55,890.33c.1-.1.3,0,.3-.1.1-.1.1-.2.2-.3,6.1-3.8,9.5-10.1,14.5-15,2.7-2.8,6.1-6.9,10-3.6,3.8,3.2.7,7.5-1.6,10.7-6.1,8.6-12.9,16.7-22.3,21.9-3.1,1.7-2.1,3.7-1.1,5.7,1.4,2.8,3.2.8,4.5-.1,3.9-2.7,7.9-5.6,11.7-8.5,3.4-2.6,6.6-5.5,10.1-8.1,2-1.5,4.5-1.6,6.7-.5,2,1,1.7,3.1,1.6,4.9-.2,3-2.3,4.8-4.3,6.5-4.1,3.6-8.3,6.9-13.2,10.9,6.2.7,11.1-1,16.1-1.8,3.7-.5,8.4-2.9,9.9,2.2,1.6,5.1-3.4,6.5-7.1,7.9-12.2,4.5-24.8,4.1-37.5,3-2.9-.2-5-1.9-6.2-4.5-1-2.3-2-4.6-2.9-6.9-3.1-7.8-3.4-8.2-9.4-2.6-7.7,7.2-15.7,7.2-24.7,2.9-13-6.2-24.3-14.5-34.2-24.8-1.5-1.6-2.8-3.4-3.6-5.4-1.1-2.5-1-5,1.2-6.8,2.3-1.8,4.8-1,6.9.7,1.5,1.2,2.9,2.7,4.3,4.1,8.7,8.4,17.9,16,29,21,1.6.7,3.5,2.4,5,1.1,1.7-1.6-.3-3.4-1-4.9-3.4-8-8.4-15.1-12.7-22.6-3.3-5.9-3.3-10-.4-11.7s6.6.4,10.3,5.8c5.3,7.9,10,16.1,13.9,24.8.6,1.3.9,3.3,3,2.6,1.6-.6,1.8-2.2,1.6-3.8-.1-1.4-.3-2.7-.5-4-1.5-9.7-5.3-18.5-9.2-27.4-1.3-3.1-2.5-6.2-2.2-9.6.2-1.9.6-3.8,2.6-4.5,1.8-.7,3.3.3,4.6,1.4,4,3.2,5.6,7.8,7.5,12.2,2.9,6.7,5.3,13.5,7.3,20.7,2.3-1.3,2.2-3.4,2.8-5,2.4-7,2.6-14.4,3.7-21.6.6-3.7,1.5-8.6,6.5-7.9,4.3.6,4.5,5.3,4.5,8.9-.1,8.6-1.6,16.9-4.3,25-.8,2.1-2,4.2-1.4,6.7-.1.1-.3.2-.5.4Z"/>
    <path class="cls-7" d="m554.85,749.43c-41.9-6.8-82.4-18.5-121.9-34-23.8-9.3-46.7-20.3-67.7-35-3.1-2.1-5.8-4.6-7.8-7.7-1.2-1.7-2.2-3.6-.7-5.5,1.5-2,3.5-1,5.4-.2,6.2,2.7,11.8,6.8,17.6,10.3,54.7,33.2,114.8,51.6,177.1,63.6,8.5,1.7,17.2,2.2,25.4,5.2,2.1.8,4.2,1.9,3.5,4.7-.6,2.2-2.5,2.4-3.9,2.4-9.5-1.3-18.4-2.3-27-3.8Z"/>
    <path class="cls-27" d="m531.05,889.93c-.1.1-.1.2-.2.3-.1.1-.2.1-.3.1.2-.2.3-.3.5-.4,0,0-.1-.1,0,0Z"/>
  </g>
  <g>
    <path class="cls-24" d="m214.44,609.9c.1-.1-.3-.8-.5-1.2-2.5-6-5-11.9-5.1-18.6-.2-11.9,4.9-16.8,16.7-15.9.9.1,2.1,1.1,2.9-.6,1.4-2.7.6-11.8-1.5-14.1-12.1-13.2-21.3-28.4-29.8-44.1-34.7-64.7-53.4-134.9-69.7-205.8-5.5-24.3-7.2-49.4-11.6-74-9.9-55.3-14.8-110.9-12.3-167.1.7-15.5,1.5-31,6.8-45.8C116.04,6.6,128.94-1.4,146.04.2c6.4.6,12.3,2.8,18,5.6,14.8,7.4,28.5,16.5,41.3,27,29,23.8,54,51.6,75.4,82.3,62.7,89.8,123.9,180.6,180.5,274.4.8,1.4,1.2,2.8,3.5,2.9,14.7.4,14.8.5,19.7-13.6,11.1-32,15.9-65.6,21.6-98.8,7.2-42.2,10.5-85,18-127.1,5-28,8.1-56.4,15.2-84,4-15.8,8.6-31.5,18.4-45,10.1-13.8,24-17.6,39.7-11,14.7,6.1,27,15.6,38,26.9,24.6,25.2,40.7,55.7,54.8,87.5,28,63.1,37.9,130.2,41.9,198.2,4.5,76.4-8.8,150.4-35.2,222.3-10,27.2-24,52.5-36.3,78.7-1.6,3.6-3.9,6.8-4.9,11,1.7.2,2.9-.2,3.8-1.3.9-1.1,2.1-2,3.4-.9,1.1,1,.7,2.5.1,3.7-1.6,3-3.6,5.9-6.5,7.5-5.6,3.1-7.6,7.9-8,13.9-.1,1.5-.3,3-.7,4.4-.8,2.6.3,3.6,2.7,4.2,5.1,1.3,10.2,2.8,14.8,5.7,6.4,4,7.6,8.7,3.8,15.2-3.4,5.7-8.3,10-13.8,13.7,1,1,1.9,2,2.8,3,6.6,7.4,7.2,13.6,2.1,22.2-3.1,5.3-7.5,9.3-12.7,12.5-1.9,1.2-3.3,2.6-4,4.8-2.4,7.3-6.6,13.5-12.2,18.6-16.5,15.3-35.2,27.3-56.2,35.4-39.6,15.4-80.6,16.4-122,10.8-53.4-7.2-102.8-25.9-148.6-53.9-41.4-25.4-76.7-57.4-101.7-99.7-6.3-10.7-11.5-21.8-14.9-33.7-1.6-5.5-.7-10.7,3.2-14.9,3.8-4.1,8.7-3.8,13.5-2.4,2.9.8,5.5,2.2,8.3,3.4.6.3,1.1.8,1.6.2Zm380.1,86.4c6.1-4.5,11.3-17,9.4-23.8-2.8,8.4-5.5,16.3-9.8,23.4-.3.4-.5.8-.9,1.1,0,.2-.2.2-.3.2-.1.1-.1.2-.1.3.1-.1.3-.3.4-.5.5-.2.9-.4,1.3-.7Zm-359.7-15.7c9.6,14.2,22.7,25.2,35,36.8,24.9,23.5,53.8,41.2,85.2,54.7,29.5,12.6,60.3,20.5,91.8,26.5,26.7,5,53.5,6.7,80.4,2.7,34.6-5.2,65.7-18.7,92.1-42,10.6-9.4,15.5-21.2,13.8-35.7-1.6-13.4-.6-26.9,0-40.4.9-8.5,1.4-17.1,3.3-25.5.7-3.1-2.1-5.2-2-8,1.1-8.4,2-16.8,1.9-25.3-.1-6.5-2-12.4-6.8-17.1-4.2-4-9.9-3.5-13.6.9-1,1.2-.9,2.1-.1,3.4,8.5,14.8,5.7,30.1,1.3,45.3-1.2,4.1-4.9,4.4-8.4,4.9-4.1.6-5.5,2.2-2,5.4,4.8,4.4,4.9,9.8,3,15.5-.4,1.4-.8,2.9-1.2,4.3-2.6,8.5-6.7,15.8-15.9,19.4,6.4.7,12.7-2.5,17.9-8.7,2.6-3.1,4.7-6.8,8-9.4,3.4.9,2,3.2,1.4,5.1-3.8,12-14.9,19.6-28.9,19.8v.1c-.2-.8-.9-.9-1.6-.8-3.1-1.9-5.9-4.1-8.1-6.9,0-.6-.1-1.2-.9-1.3h0c-7.4-24.2,2-45.8,10.5-67.4,3.3-8.5,7.2-16.8,12.4-24.4,1.9-2.7,3.9-5.5,6.1-7.9,11.2-12.1,24.9-9.7,31.8,5.4,2.5,5.5,3.4,11.4,3.7,17.4,6.8-19.8,7.5-40.1,4.9-60.7q-1.1-6.6-7.4-3.4c-13.2,6.7-26.3,13.6-40.1,18.9-5.9,2.2-8.2,1.5-10.6-4.2-7.6-18.5-12.8-37.7-18.4-56.8-.4-1.3-.2-2.7-.3-4,.9-2.7,3-4.3,5.1-6,11.2-9.3,22.7-18.4,34.9-26.6,2.8-1.9,3.4-3.1,1-6-32.5-39.8-73.5-65.7-124.2-74.9-9-1.7-18.6-3.7-28,0-3.5,1.4-5.3-1.8-6.9-4.4-13.1-21.1-26.8-41.7-40.2-62.6-37.4-58.5-76.3-116-114.9-173.7-20-29.9-40.5-59.5-65-86-21.3-23.1-44.2-44.4-72.5-59-4.6-2.4-9.2-4.6-14.3-5.8-11.6-2.9-21.3,1.9-25.7,13.2-4,10.2-5,21-5.7,31.8-3.6,56.5.8,112.5,10.2,168.2,4.2,25.1,6.9,50.5,11.3,75.6,5.4,31.2,14.9,61.4,23.3,91.9,13,46.9,30.6,91.8,55.4,133.8,8.8,15,19.1,28.9,32.7,40,2.4,1.9,4.2,4.2,4,7.5-6.1,3.7-10.6-.4-15.3-3.4-2,6.6-2,6.9,4,9.1,13.5,4.9,26.8,10.5,40.8,14.3.7,1.1,1.4,2.3,1,3.8-2.7,1.3-5.2.3-7.7-.5-13.1-3.9-26.2-7.9-39.3-11.8-2.2-.7-4.3-1.6-6.7-1.5-8.3-2.4-10.3-.8-9,7.7,1.2,8,3.2,15.8,7.2,23,1.2,2.2,2.5,4.4,5,5.3.1,5.1-1.5,6.4-6,4.4-5.7-2.4-11-5.6-17-7.5-.1-.2-.2-.4-.3-.4-3.4-1.2-7.4-3.2-10.3-.4-2.8,2.7-.2,6.4.8,9.4,5.8,18.3,17.9,32.9,28.7,48.3.1.2.6.1.9.2l.1.1c-.3.6-.1.9.6.9l.2.3c-.3.9.1,1.4,1,1.6l.1.2c-.2.9.3,1.4,1.1,1.6l.1.2c-.2.6.1.9,1.3,1.5Zm371.6-28.5c-.2,1.1-1.4,3.3.9,3.6,1.4.2,3.4-.4,3.9-2.3.9-3.5,2-7,2.4-10.6,1.1-9.3,1-18.5-3.8-27.4-1.9,2-3.2,4-3.8,6.4-1.6,1.3-2.1,3.2-2.9,5-.6,1.4-2.2,2.7-.9,4.4,1.4,1.7,3.3,1,5,.6,0,6.8.8,13.5-.8,20.3Zm-7.5-567.8c-1.8,3.9-2.6,8.1-2.9,12.5-1.8,24.5.4,48.8,1.9,73.2.5,8.7.6,17.6.2,26.4-.5,12.3,2.1,24.6.9,36.8-.5,5,.2,8.8,4.2,12,2.6,2,3.9,5.3,6.8,7.1,16.5,20.4,29.9,42.8,40.5,66.8,5.1,11.5,8.3,23.4,7.7,36.1-6.9,11.4-15.5,14.7-28.8,10.7-2.8-.8-5.6-1.8-9.3-3.1,1,2.1,1.7,3.5,2.4,4.8,7.8,13.7,12.9,28.4,15.4,43.9.6,3.7.6,7.6.1,11.4-1.6,11.5-9.5,17.1-20.9,14.7-.8-.2-1.6-.3-2.3-.4-1,.9-.5,1.7-.2,2.4,4.1,9.6,4.2,19.4,1.3,29.3-1.3,4.4,2.4,6.4,4.4,8.7,1.8,2,3.5-1,5.1-2.1,5.8-4.2,11.4-8.6,17.4-12.5,5.3-3.5,7.7-2.8,11.1,2.4,4.5,7,7.8,14.6,12,22.4,3.7-7.4,5.9-15.1,8.8-22.4,12.9-32.9,20.6-67.1,26.1-101.8,4-25.3,3.1-50.9.6-76.5-3.5-35.6-12.4-69.8-25.3-102.8-12.5-32-27.4-63-49-90.1-3.5-4.4-7-8.9-11.9-12-6.5-7.5-12-6.8-16.3,2.1Zm4.6,346.7c-1.1-1.9-2.3-3.7-3.1-5.7-.6-1.4-.9-3.1.8-4,1.5-.8,2.7.3,3.4,1.4,3.1,4.7,7.5,7.3,12.9,8.6,7.5,1.8,12.3-1.2,14-8.7,1.7-7.1.1-14-1.6-20.7-5.4-22.2-15.2-42.2-31-58.9-1.9-2.1-3.7-4.3-5.5-6.5-.8-1.1-2.8-2.3-1.3-3.7,1.7-1.6,3.1.4,4.1,1.5,5.3,5.5,10.7,11,15.8,16.7,1.9,2.2,3.7,3.6,6.8,4,3.7.5,7.2,2.4,10.8,3.6,2.2.7,4.4,1.5,6.7,1.8,10.4,1.3,16.8-2.4,16.1-13.1-1-15.1-6.9-28.6-13.7-41.8-13.2-25.6-29.7-48.9-49.5-69.8-.8-.9-1.7-1.7-2.4-2.6-.6-.8-1.5-1.7-.6-2.6,1-1.1,2.2-.7,3.1.2,1.8,1.7,3.5,3.4,5.4,5.2,2.6-5.3.9-10.4.3-15.4-.9-8.1-.7-16.3-.7-24.4,0-24.3-2.6-48.6-2.2-72.9.2-11.6-.8-23.3,2.1-34.8.1-.3.1-.7.2-1,3.4-11.4,10.4-20.8,24.9-8.2,12.9,11.2,22.4,25.1,30.7,39.7,24,42,41.5,86.5,50.4,134.3,5.6,30.1,8.4,60.3,6.8,90.8-1,19.1-5.5,37.7-9.3,56.4-6.3,30.9-16.7,60.3-28.3,89.5-.9,2.1-1,3.9,0,6.1,5.4,12.1,8.9,24.7,12.3,37.4,1.8,6.4,1.1,6.9-4.9,10.1-5.8,3.2-11.3,7-16.9,10.5-4.2.8-5.5,3.2-4.8,7.5,2.5,14.8,2.7,29.7,2.2,45.1,4.5-9.2,9.1-18.4,13.6-27.6,16.1-35.7,27.1-73,36-110.9,10.7-45.2,15.1-91.2,12.8-137.4-3.3-64.9-11.3-129.2-36.7-189.8-14-33.2-30.2-65.3-55.7-91.6-9.9-10.2-20.8-18.6-33.9-24.2-11.8-5-20-2.7-26.9,8.3-8.4,13.4-12.9,28.5-16.4,43.7-8.4,36.7-14.1,73.9-18.9,111.2-7.3,57.2-14.4,114.3-27.1,170.6-1.5,6.7-3.5,13.5-5.2,20.2-2.2,5.2-4.4,10.3-6.5,15.5-1.3,3.3,1.7,2.6,3.1,2.9,14.2,2.8,27.9,7.3,41.3,12.9,27.7,11.7,51.5,28.9,71.1,51.8.4.5.9.9,1.9,1.8.4-2.7,1.4-4.7,1-7,.8-9.6-3.1-17.9-7.5-26Zm-16.3,110.2c3.5,10,7.3,20,10.8,30,1,3,2.4,3.7,5.4,2.5,7.8-3.1,15.5-6.8,23-10.7,15.3-7.9,30.6-15.9,46-23.8,2.2-1.1,3.4-1.8,2.7-4.7-5.3-22.4-13.7-43.7-25.1-63.7-1.8-3.1-3.2-3.6-6-1.3-19.8,16.2-41.4,30.2-60.7,47.1-1.3,1.1-2.8,2.1-2.4,4.2,2.1,6.9,4,13.8,6.3,20.4Zm63.9,185.5c7.1-8.3,6.9-12.9-1-20.4-3.9-3.8-3.8-4.7.8-7.8,4.7-3.1,8.6-6.8,11.6-11.5,1.6-2.5,1.2-4.2-1.6-5.5-4.4-1.9-9.8-4.9-13.6-3.4-2.9,1.2-1.5,7.8-1.7,12-.7,13.5-.3,26.9,1.2,42,2-2.5,3.2-3.9,4.3-5.4Z"/>
    <path class="cls-3" d="m282.24,589.9c-9.5-5.4-19.2-10.5-28.8-15.7.2-3.4-1.7-5.7-4-7.6-13.6-11.1-23.8-25-32.7-40-24.8-42-42.4-86.9-55.4-133.8-8.4-30.5-17.9-60.7-23.3-91.9-4.3-25.1-7.1-50.5-11.3-75.6-9.4-55.7-13.8-111.7-10.2-168.2.6-10.8,1.7-21.6,5.7-31.8,4.4-11.3,14.1-16.1,25.7-13.2,5,1.3,9.7,3.4,14.3,5.8,28.3,14.6,51.2,35.9,72.5,59,24.5,26.5,45,56,65,86,38.5,57.7,77.4,115.2,114.9,173.7,13.3,20.9,27.1,41.5,40.2,62.6,1.6,2.6,3.4,5.8,6.9,4.4,9.4-3.7,19-1.6,28,0,50.7,9.2,91.7,35.1,124.2,74.9,2.4,2.9,1.8,4.1-1,6-12.1,8.1-23.6,17.2-34.9,26.6-2,1.7-4.2,3.3-5.1,6-5.7,1.5-7.8,4-7.8,9.8,0,9,3.1,17.3,5.4,25.8,2.8,9.9,6.6,19.5,11.6,28.6,5.4,10,10.3,11.5,20.8,7.7,16.4-5.8,30.9-15.4,46.7-22.5,2.5,20.6,1.9,40.9-4.9,60.7-.3-6.1-1.2-11.9-3.7-17.4-6.8-15.2-20.6-17.5-31.8-5.4-2.3,2.4-4.2,5.2-6.1,7.9-5.1,7.6-9.1,15.9-12.4,24.4-8.5,21.6-17.9,43.3-10.5,67.4-2.2.2-3.5-1.6-5.1-2.7-11.4-7.8-22.8-15.6-35.7-20.6-11.7-4.6-23.2-4.5-34.4,2.2-4.2,2.5-8.5,5.1-13.4,6.3,8.7-17.9,13.1-36.7,11.5-56.5-2-25.3-10.4-47.8-30.6-64.3-23.8-19.5-54-19.2-77.8.4-13.1,10.9-22.3,24.5-28.1,40.5-2.4,6.6-7,8.2-13.1,4.3-6-3.8-10.1-9.5-13.8-15.5-.5-.8-.9-1.8-1.4-2.6-.8-1.2-1.9-1.9-3.4-1.4s-1.8,1.8-1.8,3.2c.1,1,.1,2.1.4,3,4.8,13.8,12.8,24.9,27,30.1,2.6.9,2.9,2.1,3.1,4.5.7,9.3.3,18.7,2.7,27.8,1.7,6.3,3.9,12.3,6.8,18.1-3.1,2.1-.4,4.4-.2,6.6-2.5,2.1-1.7,4.3-.3,6.6,1.1,1.8,2,3.7,3,5.6-9.2-1.3-17.2-5.3-24.4-11.1-15.7-12.7-26.4-29.2-36-46.6-6.3-11.5-12.8-22.9-20.6-33.5-3-4.1-7.5-6.6-10.6-10.5.4-1.4-.2-2.6-1-3.8,2.3-1.9.8-3.6-.8-4.3Zm246.8-99.6c1.6-7.6,1.8-7.9-5.7-11.1-28.4-12.2-57.9-21.4-87.6-30-6.2-1.8-12.4-3.4-18.6-5.4-4.1-1.3-6.8-.3-8.6,3.5-7.1.1-9.5,5.7-10.8,10.8-5.1,20.1-6.4,40.6-4.8,61.3.1,1,.2,2,.3,3,.8,16.1,5.9,21.8,21.8,24.7,11.4,2,22.9,3.6,34.5,4.5,18.2,1.4,36.3,4.7,54.6,4.5,11.5-.1,13.3-1.3,16.9-12.1,4.2-12.5,5.4-25.6,7.2-38.6.5-3.5,2.3-7.1.4-10.7.1-1.5.1-3,.4-4.4Zm-222.7-24.8c13-15.4,28-28.5,44.8-39.5,6.6-4.3,13.9-7.1,21-10.4,1.7-.7,3.3-.5,4.9-.1,10,2.2,20.2,2.3,30.2,3.6.7.1,1.3,0,2,0,2-.1,4.1-.6,4.1-2.8,0-2.5-2.4-2.3-4.2-2.4-31.2-2.6-61.2-10.3-90.2-21.8-18.8-7.4-35.2-18.8-50-32.4-9.1-8.3-14.5-18.8-16-31.2-.9-7.1,3.7-15.2,10.5-18.2,6.1-2.7,12.4-3.5,18.9-1.8,3.9,1,7.9.8,11.9.8,1.8,0,4.1.5,4.2-2.2.1-2.6-2.2-2.7-4-2.8-9-.3-17.8-2.4-26.3-5.2-27.6-9.1-51.8-23.3-69.8-46.7-5.5-7.2-9.8-15.1-9.8-24.6,0-10.2,9.5-20.1,19.6-20.5,1.5-.1,2.4,1,3.5,1.7,5.9,4,12,7.8,18.4,10.9,1.9.9,4.6,3.1,6.1.4,1.4-2.6-2-3.3-3.7-4.3-14.1-8-27.7-16.7-38.6-28.9-5.3-6-9.8-12.5-11.5-20.6-1.7-7.9.9-14.3,7-18.9,6.4-4.8,13.3-9.2,22.2-7.5,2,.3,3-1.4,2.5-3.3-.4-1.4-1.1-2.8-2-4-16.8-21.6-33.1-43.6-54.5-61-4.7-3.8-9.6-7.3-15.5-8.9-7.2-2-11.6.4-13.8,7.4-.9,2.8-1,5.6-1.1,8.4-1.1,23.4,2.8,46.4,5.5,69.5,1.9,16.3,3.7,32.7,5.5,49,3.2,28.2,7.7,56.2,12.9,84.2,7.4,40.2,17.1,79.9,29.3,118.9,7.7,24.7,16.1,49.3,26.8,72.9,9.8,21.5,23.3,40.6,37.4,59.4,2,2.8,4.8,5.1,7.5,7.3,1.8,1.5,3.8,2.3,3.7-1.5,4.9-4.4,7.2-10.6,10.5-16.1,5.7-9.3,11.1-18.8,16.6-28.2,2.2-1.6,3.9-3.7,5.2-6.1,6-7.5,11.9-15.1,18.3-22.5Z"/>
    <path class="cls-40" d="m668.64,574.5c-2.4-7-5.3-13.8-8.5-20.5,5.6-3.5,11.1-7.4,16.9-10.5,5.9-3.2,6.6-3.7,4.9-10.1-3.4-12.7-6.9-25.4-12.3-37.4-.9-2.2-.8-4,0-6.1,11.6-29.2,22.1-58.6,28.3-89.5,3.8-18.7,8.3-37.3,9.3-56.4,1.6-30.6-1.2-60.8-6.8-90.8-8.9-47.8-26.4-92.3-50.4-134.3-8.3-14.5-17.8-28.5-30.7-39.7-14.5-12.6-21.4-3.2-24.9,8.2-.1.3-.1.7-.2,1-2.8,11.5-1.9,23.2-2.1,34.8-.4,24.3,2.2,48.6,2.2,72.9,0,8.1-.2,16.2.7,24.4.5,4.9,2.2,10.1-.3,15.4-1.8-1.8-3.6-3.5-5.4-5.2-.9-.8-2.1-1.2-3.1-.2-.9,1,0,1.8.6,2.6.8.9,1.6,1.8,2.4,2.6,19.9,20.9,36.4,44.2,49.5,69.8,6.8,13.1,12.7,26.7,13.7,41.8.7,10.7-5.7,14.3-16.1,13.1-2.3-.2-4.5-1.1-6.7-1.8-3.6-1.2-7.1-3.1-10.8-3.6-3.1-.5-4.9-1.8-6.8-4-5.1-5.7-10.4-11.2-15.8-16.7-1.1-1.1-2.4-3.1-4.1-1.5-1.5,1.4.4,2.6,1.3,3.7,1.8,2.2,3.6,4.4,5.5,6.5,15.8,16.8,25.5,36.7,31,58.9,1.6,6.7,3.2,13.6,1.6,20.7-1.8,7.5-6.5,10.5-14,8.7-5.4-1.3-9.8-3.9-12.9-8.6-.7-1-1.9-2.1-3.4-1.4-1.7.9-1.4,2.7-.8,4,.8,2,2.1,3.8,3.1,5.7,4.4,8.1,8.3,16.3,7.5,25.9-1.6.2-2.4-.9-3.3-1.9-27.1-29-59.3-51.2-93.8-70.4-4.6-2.6-9.4-5-14.8-5.5,1.7-6.7,3.7-13.4,5.2-20.2,12.7-56.3,19.7-113.5,27.1-170.6,4.8-37.3,10.4-74.5,18.9-111.2,3.5-15.2,8-30.3,16.4-43.7,6.9-11,15.1-13.3,26.9-8.3,13.1,5.6,24,14,33.9,24.2,25.6,26.3,41.7,58.3,55.7,91.6,25.4,60.7,33.4,125,36.7,189.8,2.3,46.2-2.2,92.2-12.8,137.4-8.9,38-19.9,75.3-36,110.9-2.1-.8-2-3-2.5-4.5Z"/>
    <path class="cls-13" d="m375.64,699.7c-.2.8.2,1.1.6,1,8.3,10.6,17.8,19.9,30.5,24.8,23.5,9.1,44.9,4.7,64.2-11,8.6-7,15.1-15.8,20.5-25.4,4.9-1.1,9.2-3.8,13.4-6.3,11.2-6.7,22.7-6.8,34.4-2.2,12.9,5.1,24.3,12.8,35.7,20.6,1.5,1.1,2.8,2.9,5.1,2.7h0c-.2.7.3,1.1.9,1.3,2.2,2.9,5,5.1,8.1,6.9.4.6.9.9,1.6.8v-.1c4.4,7.4,4.9,7.5,12.2,3.7,13.1-6.8,22.5-16.8,27.1-31,.5-1.4,1.1-2.4,2.5-2.8-.5,13.5-1.6,27,0,40.4,1.7,14.6-3.2,26.3-13.8,35.7-26.4,23.2-57.4,36.8-92.1,42-26.9,4.1-53.7,2.4-80.4-2.7-31.5-6-62.4-13.9-91.8-26.5-31.4-13.4-60.3-31.2-85.2-54.7-12.3-11.6-25.4-22.5-35-36.8.1-.7-.1-1-.8-1.1l-.1-.2c.2-.9-.2-1.4-1.1-1.6l-.1-.2c.3-.9,0-1.5-1-1.6l-.2-.3c.3-.6.1-.9-.6-.9l-.1-.1c-2.7-7.8-7.8-14.5-10.7-22.2-3.7-9.7-7.3-19.5-9.7-29.6-.4-1.7-1.7-3.8.7-5.3,5.9,1.8,11.3,5,17,7.5,4.5,2,6.1.7,6-4.4,1.2-.7.6-1.7.3-2.6-3.9-10.8-5.6-21.9-3.4-33.3,2.4-.1,4.5.8,6.7,1.5,13.1,3.9,26.2,7.9,39.3,11.8,2.5.8,5.1,1.8,7.7.5,3.1,3.9,7.6,6.4,10.6,10.5,7.8,10.6,14.3,22,20.6,33.5,9.6,17.4,20.3,33.9,36,46.6,7.2,5.8,15.2,9.8,24.4,11.1h0Zm184.7,73.9c-1.1.9-2.7,1.9-1.4,3.6,1.1,1.4,2.7,1,4.1.3,3.4-1.7,6.5-3.9,9-6.9,9.4-11,14.9-23.9,18.1-37.8,1.7-7.3-.3-14-5.8-19.2-9.9-9.3-22.3-14.4-34.1-20.3-1.4-.7-3.5-.9-4.3,1.1-.9,2,.9,3,2.3,3.8,5.4,3.3,10.8,6.5,16.2,9.8,1.3.8,3,1.3,4.1,3.2-4.6.6-9,.8-12.8,3.4-4.2,2.8-4.5,7-4.6,11.4-4.2,10.4,5.3,31,21.3,28.4.9-.1,1.6,0,2.1.8-3.7,7-8.1,13.4-14.2,18.4Zm-63,2.7c.2-2-1-2.9-2.8-3.5-7.2-2.5-12.5-7.2-15.4-14.4-.5-1.2-.9-2.4-2.3-1.9-1.1.4-1.8,1.7-1.5,2.9.6,2.4,1,4.9,2.2,7,3.5,6.3,8.6,10.9,14.9,12.7,2.9,0,4.6-.5,4.9-2.8Z"/>
    <path class="cls-13" d="m606.54,189.4c-.7-9.4-1.5-18.9-2-28.3-1-18.4-3.2-36.7-2.1-55.2.3-5,.9-9.9,1.8-14.8,1.4-8.3,2.8-9.3,11-9.2,4.9,3.1,8.4,7.6,11.9,12,21.6,27.2,36.5,58.1,49,90.1,13,33,21.8,67.3,25.3,102.8,2.5,25.6,3.4,51.2-.6,76.5-5.5,34.7-13.2,68.9-26.1,101.8-2.9,7.3-5.1,14.9-8.8,22.4-4.2-7.8-7.5-15.4-12-22.4-3.4-5.2-5.8-5.9-11.1-2.4-5.9,4-11.6,8.3-17.4,12.5-.9-.3-1.4-1-1.2-1.9,1.5-5.6,2.5-11.3,2.1-17.2,0-1.1.5-1.8,1.6-2.2,11.7-4.7,13.5-15.2,14.3-25.8,1.1-14.2-.6-28.1-6.6-41.3-.2-.4,0-.9-.1-1.8,7.4.5,14-1,19.1-6.6,6-6.5,6.2-14.3,5.3-22.4-.1-.7-.8-1-1.5-.9.6-12.7-2.6-24.7-7.7-36.1-10.6-24-24-46.4-40.5-66.8.9-20.9-2-41.7-3.7-62.8Z"/>
    <path class="cls-43" d="m583.34,516.7c19.3-16.9,40.8-30.9,60.7-47.1,2.8-2.3,4.2-1.8,6,1.3,11.4,20,19.8,41.2,25.1,63.7.6,2.8-.6,3.6-2.7,4.7-15.4,7.9-30.6,15.9-46,23.8-7.5,3.8-15.1,7.5-23,10.7-3,1.2-4.4.4-5.4-2.5-3.6-10-7.4-19.9-10.8-30-2.3-6.8-4.2-13.7-6.3-20.5-.4-2.1,1.1-3,2.4-4.1Z"/>
    <path class="cls-34" d="m618.14,687.9c-3.3,2.6-5.4,6.2-8,9.4-5.2,6.2-11.5,9.4-17.9,8.7,9.2-3.6,13.3-10.9,15.9-19.4.4-1.4.7-2.9,1.2-4.3,1.9-5.7,1.9-11-3-15.5-3.4-3.2-2.1-4.8,2-5.4,3.4-.5,7.2-.8,8.4-4.9,4.5-15.2,7.3-30.5-1.3-45.3-.8-1.3-.9-2.1.1-3.4,3.7-4.4,9.5-4.9,13.6-.9,4.9,4.6,6.7,10.6,6.8,17.1.1,8.5-.8,16.9-1.9,25.3-3.7,13.5-8,26.8-15.9,38.6Z"/>
    <path class="cls-31" d="m620.54,477.7c-2.1-2.3-5.7-4.3-4.4-8.7,2.8-9.9,2.7-19.7-1.3-29.3-.3-.7-.9-1.5.2-2.4.7.1,1.5.2,2.3.4,11.4,2.3,19.3-3.2,20.9-14.7.5-3.8.5-7.6-.1-11.4-2.5-15.5-7.6-30.2-15.4-43.9-.7-1.3-1.3-2.7-2.4-4.8,3.7,1.2,6.5,2.3,9.3,3.1,13.3,4,21.9.8,28.8-10.7.7-.1,1.4.2,1.5.9.8,8,.7,15.9-5.3,22.4-5.2,5.6-11.8,7.1-19.1,6.6,0,.9-.1,1.4.1,1.8,6,13.1,7.7,27.1,6.6,41.3-.8,10.6-2.6,21.1-14.3,25.8-1.1.4-1.7,1.1-1.6,2.2.4,5.9-.6,11.6-2.1,17.2-.2.9.3,1.6,1.2,1.9-1.6,1.1-3.3,4.1-4.9,2.3Z"/>
    <path class="cls-31" d="m603.34,245.1c-4-3.2-4.7-7-4.2-12,1.2-12.3-1.4-24.5-.9-36.8.4-8.8.3-17.6-.2-26.4-1.4-24.4-3.7-48.7-1.9-73.2.3-4.3,1.1-8.5,2.9-12.5,4.1-8.8,9.6-9.5,16.2-2-8.1-.1-9.5.9-11,9.2-.9,4.9-1.5,9.9-1.8,14.8-1.1,18.4,1.1,36.8,2.1,55.2.5,9.4,1.3,18.9,2,28.3,1.7,20.8,4.6,41.5,3.7,62.5-2.9-1.8-4.2-5.1-6.9-7.1Z"/>
    <path class="cls-11" d="m610.04,464.1c-1-.9-1.5-1.3-1.9-1.8-19.6-22.9-43.4-40.1-71.1-51.8-13.4-5.7-27.1-10.1-41.3-12.9-1.4-.3-4.4.4-3.1-2.9,2.1-5.2,4.3-10.3,6.5-15.5,5.4.5,10.2,2.9,14.8,5.5,34.5,19.2,66.7,41.4,93.8,70.4.9.9,1.7,2.1,3.3,1.9.4,2.3-.7,4.3-1,7.1Z"/>
    <path class="cls-11" d="m573.34,520.9c5.6,19.1,10.8,38.4,18.4,56.8,2.4,5.7,4.7,6.5,10.6,4.2,13.9-5.3,26.9-12.2,40.1-18.9,6.4-3.2,6.3-3.2,7.4,3.4-15.8,7-30.3,16.6-46.7,22.5-10.5,3.7-15.4,2.3-20.8-7.7-5-9.1-8.8-18.6-11.6-28.6-2.3-8.5-5.4-16.8-5.4-25.8,0-5.8,2.1-8.3,7.8-9.8.1,1.3-.1,2.7.2,3.9Z"/>
    <path class="cls-40" d="m635.94,657.3c-1.9,8.4-2.3,17-3.3,25.5-1.4.4-2.1,1.4-2.5,2.8-4.6,14.2-13.9,24.2-27.1,31-7.3,3.8-7.8,3.7-12.2-3.7,14-.2,25.1-7.7,28.9-19.8.6-1.9,2-4.2-1.4-5.1,7.6-11.9,12-25.2,15.7-38.7,0,2.8,2.7,4.9,1.9,8Z"/>
    <path class="cls-40" d="m645.74,690.2c.2-4.2-1.3-10.8,1.7-12,3.9-1.6,9.2,1.4,13.6,3.4,2.8,1.3,3.2,3,1.6,5.5-3.1,4.7-7,8.4-11.6,11.5-4.6,3.1-4.7,4.1-.8,7.8,7.8,7.5,8.1,12,1,20.4-1.2,1.4-2.3,2.8-4.4,5.3-1.5-15.2-1.9-28.6-1.1-41.9Z"/>
    <path class="cls-11" d="m657.54,606.5c.5-15.4.3-30.3-2.2-45.1-.7-4.2.6-6.6,4.8-7.5,3.2,6.7,6.1,13.5,8.5,20.5.5,1.7.4,3.8,2.5,4.6-4.6,9.2-9.1,18.4-13.6,27.5Z"/>
    <path class="cls-31" d="m229.44,673.9c-10.8-15.4-22.9-30-28.7-48.3-.9-3-3.6-6.7-.8-9.4,2.9-2.8,6.9-.8,10.3.4.1.1.2.3.3.4-2.5,1.5-1.1,3.5-.7,5.3,2.4,10.1,6,19.9,9.7,29.6,2.9,7.8,8,14.4,10.7,22.2-.3-.1-.8-.1-.8-.2Z"/>
    <path class="cls-11" d="m242.24,579.8c-6-2.1-6.1-2.4-4-9.1,4.7,3,9.2,7.1,15.3,3.4,9.6,5.2,19.3,10.3,28.8,15.7,1.4.8,2.9,2.6.7,4.4-13.9-3.8-27.2-9.4-40.8-14.4Z"/>
    <path class="cls-31" d="m228.64,614.9c-4-7.1-6-15-7.2-23-1.3-8.6.7-10.2,9-7.7-2.2,11.4-.6,22.5,3.4,33.3.3.9.9,1.8-.3,2.6-2.5-1-3.8-3.2-4.9-5.2Z"/>
    <path class="cls-42" d="m606.04,621.8c.6-2.4,1.9-4.4,3.8-6.4,4.7,8.9,4.9,18.1,3.8,27.4-.4,3.6-1.5,7.1-2.4,10.6-.5,1.9-2.4,2.5-3.9,2.3-2.3-.3-1.1-2.5-.9-3.6,1.5-6.7.8-13.5.8-20.3,3.6-5.2,3.3-8-1.2-10Z"/>
    <path class="cls-42" d="m594.24,696c4.3-7.1,6.9-15,9.8-23.4,1.9,6.8-3.3,19.2-9.4,23.8-.2-.1-.3-.3-.4-.4Z"/>
    <path class="cls-13" d="m602.24,631.2c-1.4-1.7.3-3,.9-4.4.8-1.7,1.4-3.7,2.9-5,4.5,2,4.8,4.8,1.2,10-1.7.3-3.6,1.1-5-.6Z"/>
    <path class="cls-31" d="m231.24,675.5c1,.1,1.2.7,1,1.6-1-.2-1.3-.7-1-1.6Z"/>
    <path class="cls-31" d="m232.34,677.3c.9.1,1.3.7,1.1,1.6-.9-.2-1.3-.7-1.1-1.6Z"/>
    <path class="cls-31" d="m230.34,674.3c.6,0,.9.3.6.9-.7,0-.9-.3-.6-.9Z"/>
    <path class="cls-42" d="m593.24,697c.4-.3.6-.6.9-1,.2.1.4.3.5.4-.5.2-.9.4-1.4.6h0Z"/>
    <path class="cls-42" d="m593.34,697.1c-.2.1-.3.3-.5.5.1-.1,0-.3.1-.3.1-.1.3-.1.4-.2,0,0-.1-.1,0,0Z"/>
    <path class="cls-3" d="m581.24,705.3c-.6-.2-1.1-.5-.9-1.3.8.1.9.7.9,1.3Z"/>
    <path class="cls-40" d="m590.94,713c-.7.1-1.2-.2-1.6-.8.7-.1,1.3,0,1.6.8Z"/>
    <path class="cls-31" d="m233.54,679c.7.1.9.5.8,1.1-.7-.1-1-.4-.8-1.1Z"/>
    <path class="cls-13" d="m186.34,401.5c-11.6-39.1-22.3-78.5-29.7-118.7-5.8-31.4-11.1-62.8-14.5-94.5-3-27.7-6.5-55.4-9.3-83.1-1-9.4-.8-19-.4-28.5.3-9.5,4.2-11.5,12.5-6.7,13.9,8,24.7,19.6,35.1,31.6,4.1,4.8,7.9,9.9,11.8,14.8-1.6,2.8.2,5.2.8,7.7,1,4,2.5,8,3.7,11.9-3.8,2.3-8,4.1-11.3,7.1-5.6,5.1-9.2,11-9.2,18.7-3.4,4.1-2,8.9-1.2,13.2,1.6,8.6,5,16.6,10.1,23.7,2.4,3.3,4.2,6.1,1.7,10.2-.7,1.2-1.7,3-.4,4.7-6,12-3.2,23.3,2.3,34.5.9,1.8,1.9,3.5,2.9,5.2,1.2,6.8,5.1,12.5,8.6,18.3,11.3,18.5,24.9,35,43.6,46.6,1.3.8,2.1,1.7,1.8,3.2-3.9,19,5.5,33.3,16.1,47.3,20.3,26.6,46.3,45.2,78.1,55.6,1.1.4,2.3.6,2.9,1.8-18.7,13.9-34.4,30.8-48.5,49.2-3.2,4.1-5,9.2-9,12.8-1.1,1.9-4.2,3.2-2,6.1-5.5,9.4-10.9,18.9-16.6,28.2-3.3,5.5-5.6,11.7-10.5,16.1-34-40.1-54.6-86.9-69.4-137Z"/>
    <path class="cls-44" d="m375.44,699.9v-.1c-1-1.9-1.9-3.8-3-5.6-1.4-2.3-2.2-4.5.3-6.6,2.8,0,3.9,2,5.1,4.1,6.7,11.7,15.3,21.5,27.6,27.3,21.3,10.2,41.2,6.3,59.2-7.9,17.7-13.9,27.2-32.9,31-54.7,4-22.9.8-44.7-11.4-64.8-8.1-13.4-19.3-23.2-34.5-27.8-1.1-.4-2.2-.8-3.9-.3,1.9,1.6,3.7,3.1,5.3,4.6,11.7,11,17.5,24.9,19,40.6,1.2,12.6,1,25.1-5.3,36.9-2.4,4.6-5.3,6.3-10,6.3-3.6,0-7.1-1.2-11.2-.3,2.8,4,5.5,7.7,8.1,11.5,1.8,2.5,2.5,5.2.6,7.9-13.1,18.5-33.1,33.1-58,27.1-9.7-2.4-15.9-9.2-21.1-17.2-3-5.8-5.1-11.8-6.8-18.1-2.5-9.2-2.1-18.5-2.7-27.8-.1-2.3-.5-3.5-3.1-4.5-14.3-5.2-22.2-16.3-27-30.1-.4-1-.4-2-.4-3,0-1.4.3-2.7,1.8-3.2s2.6.2,3.4,1.4c.5.8.9,1.8,1.4,2.6,3.7,5.9,7.8,11.7,13.8,15.5,6.2,3.9,10.7,2.3,13.1-4.3,5.8-16,14.9-29.7,28.1-40.5,23.8-19.6,54-19.9,77.8-.4,20.2,16.5,28.6,39,30.6,64.3,1.5,19.9-2.9,38.7-11.5,56.5-5.4,9.6-11.9,18.4-20.5,25.4-19.3,15.7-40.7,20.1-64.2,11-12.8-4.9-22.3-14.2-30.5-24.8-.1-.6-.2-1.1-1.1-1Zm76.7-107.7c6.9,15.6,7,31.6,2.6,47.9-.3,1.4-3.1,3.7.1,4.9,2.6,1,3.6-1.3,4.7-3.3,10.3-18.2,6.2-59.9-20.7-76.6-4.7-2.9-9.3-3.9-14.7-2.6-7.8,2-15.4,4.3-21.7,9.5-.1.1-.3.1-.4.2s-.1.2-.1.3c.1-.2.3-.3.4-.5,3.7-.6,7.4-1.5,11.2-1.9,2-.3,4.3-1.1,6.1.9-.8,2.4-1.1,4.9.4,7.2,1.7,2.7,4.1,4,7.2,3.3,4.5-1,5.4-4.4,5.3-8.4,10.1,2.8,15.7,10.3,19.6,19.1Zm-43.8,100.5c15.6-1.3,26.4-10.8,36.3-21.8,1.3-1.4,2.5-3.1,1.2-5.4-2.2-3.9-3.7-4.3-6.5-.9-10.8,13.3-24.7,20.3-41.8,21.2-4,.2-7.8-.9-13.1-1.7,7.2,7.9,15.4,9.3,23.9,8.6Zm-5.3-18.7c.2-3.3-3.4-6-7.4-5.7-3.4.2-6.2,1.6-6.3,5.6-.1,3.4,2.6,5.4,6.9,5.4,3.7,0,6.6-1.2,6.8-5.3Zm-7.8-8.1c1.7.2,2.9-.8,3-2.6.2-1.6-.7-2.7-2.2-2.8-1.8-.2-3.1.7-3.7,2.2.1,2.2,1.5,2.9,2.9,3.2Z"/>
    <path class="cls-21" d="m202.84,203.2c-13.1-11.7-25.2-23.2-27.1-41.2,0-7.8,3.7-13.7,9.2-18.7,3.4-3.1,7.5-4.8,11.3-7.1q9.7-3,3.3-10.7c-2.6-3-4.6-6.4-7.8-8.8-3.9-5-7.7-10-11.8-14.8-10.4-11.9-21.2-23.5-35.1-31.6-8.3-4.9-12.1-2.8-12.5,6.7-.3,9.5-.5,19.1.4,28.5,2.8,27.7,6.3,55.4,9.3,83.1,3.4,31.7,8.7,63.1,14.5,94.5,7.4,40.2,18.1,79.6,29.7,118.7,14.8,49.9,35.4,96.7,69.4,136.7.1,3.8-1.9,3-3.7,1.5-2.6-2.3-5.4-4.5-7.5-7.3-14.2-18.7-27.7-37.9-37.4-59.4-10.7-23.6-19.1-48.2-26.8-72.9-12.1-39-21.8-78.7-29.3-118.9-5.2-27.9-9.7-56-12.9-84.2-1.8-16.3-3.6-32.7-5.5-49-2.7-23.1-6.6-46.1-5.5-69.5.2-2.9.2-5.6,1.1-8.4,2.2-7,6.6-9.4,13.8-7.4,6,1.7,10.9,5.1,15.5,8.9,21.5,17.4,37.7,39.5,54.5,61,.9,1.2,1.6,2.6,2,4,.5,2-.5,3.7-2.5,3.3-8.9-1.7-15.8,2.7-22.2,7.5-6.1,4.6-8.7,10.9-7,18.9,1.7,8.1,6.1,14.6,11.5,20.6,11,12.1,24.5,20.9,38.6,28.9,1.7.9,5.1,1.7,3.7,4.3-1.5,2.7-4.2.5-6.1-.4-6.4-3.1-12.5-6.9-18.4-10.9-1.1-.7-2-1.8-3.5-1.7-10.1.5-19.6,10.3-19.6,20.5.1,9.5,4.3,17.4,9.8,24.6,18,23.4,42.2,37.6,69.8,46.7,8.5,2.8,17.2,4.9,26.3,5.2,1.8.1,4.1.3,4,2.8-.1,2.7-2.5,2.2-4.2,2.2-4,0-8,.2-11.9-.8-6.5-1.6-12.8-.9-18.9,1.8-6.8,3-11.3,11.1-10.5,18.2,1.5,12.4,6.9,22.8,16,31.2,14.8,13.6,31.2,25,50,32.4,29,11.5,59,19.2,90.2,21.8,1.9.2,4.2-.1,4.2,2.4,0,2.2-2.2,2.7-4.1,2.8-.7,0-1.3.1-2,0-10.1-1.3-20.3-1.4-30.2-3.6-1.7-.4-3.3-.7-4.9.1-7.1,3.3-14.4,6.1-21,10.4-16.8,11-31.8,24.1-44.8,39.5-6.2,7.4-12.1,15-18.1,22.5h-3.3c4-3.5,5.8-8.6,9-12.8,14.1-18.4,29.8-35.3,48.5-49.2,6.5-5,13.4-9.5,21.1-12.9-12.3-3.7-24.7-6.7-36.6-11-24.2-8.6-45.5-21.8-63.8-39.8-9.6-9.4-15.3-20.8-16.1-34.4-.6-9.2,2.9-16.1,10.3-21.3.7-.5,1.5-.9,2.2-1.3s1.6-.6,1.9-1.8c-12.5-4.9-24.7-10.3-35.8-18-12.6-8.7-23.9-18.6-32.7-31.2-.3-.5-1-.8-1.5-1.1-1-1.8-2-3.4-2.9-5.2-5.5-11.2-8.4-22.6-2.3-34.5,4.6-4.4,9.5-8.7,16.7-10.4Z"/>
    <path class="cls-37" d="m373.44,680.8c5.2,8,11.4,14.9,21.1,17.2,24.8,6,44.8-8.6,58-27.1,1.8-2.7,1.2-5.4-.6-7.9-2.7-3.7-5.3-7.5-8.1-11.5,4.1-.9,7.6.3,11.2.3,4.7.1,7.6-1.7,10-6.3,6.3-11.8,6.5-24.2,5.3-36.9-1.5-15.7-7.3-29.6-19-40.6-1.7-1.5-3.4-2.9-5.3-4.6,1.7-.5,2.8,0,3.9.3,15.2,4.7,26.4,14.4,34.5,27.8,12.2,20.1,15.4,41.9,11.4,64.8-3.9,21.8-13.3,40.8-31,54.7-18,14.2-37.9,18-59.2,7.9-12.3-5.8-20.9-15.6-27.6-27.3-1.2-2-2.3-4.1-5.1-4.1-.2-2.2-2.9-4.5.5-6.7Z"/>
    <path class="cls-24" d="m521.34,518.2c-2.3,6.6-4.2,13.3-6.2,20-2,6.5-4.5,8.2-11.4,7.7-12.3-.8-24.4-3.2-36.5-5.1-20.7-3.2-41.3-6.4-62-9.5-4.3-.6-5.8-2.8-5.9-7-.5-23.2,2.9-46,7.4-68.7.6-2.8,1.2-5.5,1.8-8.3,1.8-3.7,4.5-4.8,8.6-3.5,6.1,1.9,12.4,3.6,18.6,5.4,29.7,8.6,59.2,17.8,87.6,30,7.4,3.2,7.3,3.5,5.7,11.1-.3,1.4-.3,2.9-.4,4.4-3.6,7.5-4.7,15.7-7.3,23.5Zm-11,12.5c4.1-13.8,8-27.7,12.3-41.5.8-2.6.8-3.7-2-4.7-33.1-11.7-65.9-23.9-100.1-32-3.6-.8-5-.3-5.9,3.6-4.2,17.5-5.1,35.5-7.2,53.3-.5,4.5,1.1,8.8.6,13.4-.3,2.3,2.7,1.8,4.3,2.2,21.1,4.5,42.7,6.5,64,10,7.9,1.3,15.7,2.9,23.7,3.2q7.9.4,10.3-7.5Z"/>
    <path class="cls-11" d="m528.14,505.4c-1.8,13-3.1,26.1-7.2,38.6-3.6,10.8-5.4,12-16.9,12.1-18.3.2-36.4-3.2-54.6-4.5-11.6-.8-23.1-2.4-34.5-4.5-15.9-2.9-20.9-8.6-21.8-24.7,0-1-.2-2-.3-3-1.6-20.7-.3-41.2,4.8-61.3,1.3-5.1,3.8-10.7,10.8-10.8-.6,2.8-1.3,5.5-1.8,8.3-4.5,22.7-7.9,45.5-7.4,68.7.1,4.1,1.5,6.4,5.9,7,20.7,3.1,41.4,6.3,62,9.5,12.1,1.9,24.2,4.3,36.5,5.1,6.9.4,9.4-1.2,11.4-7.7,2-6.7,3.9-13.4,6.2-20,2.7-7.8,3.8-16,7.4-23.5,1.9,3.6.1,7.2-.5,10.7Z"/>
    <path class="cls-35" d="m282.74,494.1c-2.1-2.9.9-4.2,2-6.1h3.3c-1.3,2.4-3,4.5-5.3,6.1Z"/>
    <path class="cls-24" d="m577.34,748.5c-13-1.7-21.3-8.8-25.1-21.1-.2-.7-.3-1.3-1.1-1.4.1-4.4.4-8.6,4.6-11.4,3.9-2.6,8.3-2.8,12.8-3.4-1.1-1.9-2.7-2.4-4.1-3.2-5.4-3.3-10.8-6.5-16.2-9.8-1.4-.8-3.2-1.7-2.3-3.8.8-2,2.9-1.8,4.3-1.1,11.9,6,24.3,11,34.1,20.3,5.4,5.2,7.5,11.9,5.8,19.2-3.2,13.9-8.8,26.8-18.1,37.8-2.5,2.9-5.6,5.2-9,6.9-1.4.7-3,1.1-4.1-.3-1.3-1.8.3-2.7,1.4-3.6,6.2-5,10.6-11.4,14.2-18.4,1.4-2,2.2-4.2,2.8-6.7Zm1.3-26.5c-5.6-3.2-11.4-5-17.9-2.4-2.2.9-3.2,2.2-2.5,4.5.6,7.9,8,16.4,15.3,17.5,2.5.4,4.1-1.2,5.3-3,1.7-2.6,3.1-5.4,3.2-8.7,1.1-3.6-.4-6.2-3.4-7.9Z"/>
    <path class="cls-31" d="m572.54,754.4c-16,2.6-25.5-18-21.3-28.4.8.1.9.7,1.1,1.4,3.8,12.3,12.1,19.4,25.1,21.1-.6,2.4-1.5,4.7-2.9,6.7-.6-.8-1.3-.9-2-.8Z"/>
    <path class="cls-21" d="m477.54,766.5c-1.1-2.1-1.6-4.6-2.2-7-.3-1.3.4-2.5,1.5-2.9,1.4-.5,1.8.7,2.3,1.9,2.9,7.2,8.2,11.8,15.4,14.4,1.9.7,3.1,1.5,2.8,3.5-.3,2.2-2,2.8-4.9,2.7-6.3-1.8-11.3-6.4-14.9-12.6Z"/>
    <path class="cls-3" d="m375.54,699.8c.8,0,.9.5,1,1.1-.7-.1-1.1-.4-1-1.1Z"/>
    <path class="cls-31" d="m339.44,424.2c-31.8-10.4-57.8-29-78.1-55.6-10.7-14-20-28.4-16.1-47.3.3-1.6-.5-2.4-1.8-3.2-18.8-11.6-32.3-28.1-43.6-46.6-3.5-5.7-7.3-11.4-8.6-18.3.5.4,1.2.6,1.5,1.1,8.8,12.6,20.2,22.5,32.7,31.2,11.1,7.7,23.4,13.1,35.8,18-.3,1.3-1.2,1.4-1.9,1.8-.8.4-1.5.8-2.2,1.3-7.4,5.2-10.9,12.1-10.3,21.3.9,13.6,6.6,25,16.1,34.4,18.3,18,39.7,31.1,63.8,39.8,11.9,4.3,24.2,7.3,36.6,11-7.8,3.3-14.6,7.9-21.1,12.9-.5-1.2-1.8-1.4-2.8-1.8Z"/>
    <path class="cls-31" d="m186.64,209.1c2.4-4.1.7-6.9-1.7-10.2-5.1-7.1-8.5-15.2-10.1-23.7-.8-4.3-2.2-9.1,1.2-13.2,1.8,17.9,13.9,29.5,27.1,41.2-7.5,1.7-12.3,5.9-17,10.4-1.3-1.6-.3-3.5.5-4.5Z"/>
    <path class="cls-31" d="m192.74,124.5c-.7-2.5-2.4-5-.8-7.7,3.2,2.4,5.3,5.8,7.8,8.8,6.5,7.7,6.4,7.7-3.3,10.7-1.2-4-2.7-7.9-3.7-11.8Z"/>
    <path class="cls-42" d="m402.34,572.1c6.4-5.2,13.9-7.5,21.9-9.4,5.4-1.3,10-.3,14.7,2.6,26.9,16.7,31.1,58.5,20.7,76.6-1.1,2-2.1,4.3-4.7,3.3-3.2-1.2-.5-3.5-.1-4.9,4.4-16.3,4.2-32.3-2.6-47.9-3.9-9-9.6-16.4-19.6-19.2-.5-3.1-1.7-5.7-5.1-6.5-4-.9-5.9,1.8-7.9,4.4-1.8-1.9-4.1-1.1-6.1-.9-3.7.4-7.5,1.2-11.2,1.9h0Z"/>
    <path class="cls-42" d="m397.64,685.8c17.1-.9,31-7.9,41.8-21.2,2.8-3.4,4.4-3,6.5.9,1.2,2.3.1,3.9-1.2,5.4-9.9,11-20.7,20.6-36.3,21.8-8.6.7-16.8-.7-24-8.6,5.3.8,9.1,1.9,13.2,1.7Z"/>
    <path class="cls-34" d="m427.14,581.5c-3.1.7-5.5-.7-7.2-3.3-1.4-2.3-1.1-4.7-.4-7.2,2-2.6,3.9-5.3,7.9-4.4,3.5.8,4.6,3.4,5.1,6.5.1,4-.8,7.4-5.4,8.4Z"/>
    <path class="cls-42" d="m389.44,673.8c.1-4,2.9-5.3,6.3-5.6,4-.3,7.6,2.4,7.4,5.7-.2,4.2-3.1,5.4-6.9,5.4-4.4,0-7-2-6.8-5.5Z"/>
    <path class="cls-42" d="m396.14,660.4c1.5.1,2.3,1.2,2.2,2.8-.1,1.8-1.3,2.8-3,2.6-1.6-.1-2.9-.8-3-3.1.6-1.5,2-2.4,3.8-2.3Z"/>
    <path class="cls-42" d="m402.34,572.1c-.2.1-.3.3-.5.5,0-.1,0-.3.1-.3.1-.1.3-.1.4-.2h0Z"/>
    <path class="cls-43" d="m476.24,535.1c-21.3-3.5-42.8-5.5-64-10-1.6-.4-4.6.1-4.3-2.2.5-4.6-1.1-8.9-.6-13.4,2.1-17.8,3-35.7,7.2-53.3.9-3.9,2.3-4.5,5.9-3.6,34.2,8.1,67.1,20.3,100.1,32,2.8,1,2.8,2.1,2,4.7-4.2,13.8-8.2,27.6-12.3,41.5q-2.3,7.8-10.2,7.4c-8.1-.3-15.9-1.9-23.8-3.1Z"/>
    <path class="cls-42" d="m558.24,724.1c-.7-2.3.3-3.6,2.5-4.5,6.5-2.6,12.3-.8,17.9,2.4,2.9,1.7,4.5,4.3,3.4,7.9-9.2,3.5-16.8.1-23.8-5.8Z"/>
    <path class="cls-35" d="m578.84,738.6c-1.2,1.8-2.8,3.4-5.3,3-7.3-1.1-14.7-9.6-15.3-17.5,7,5.8,14.5,9.3,23.8,5.8-.1,3.3-1.5,6.1-3.2,8.7Z"/>
  </g>
  <g>
    <path class="cls-1" d="m638.51,1162.6c.9,1,2.3.7,3.3.1,3.2-2,6.6-3.9,9.5-6.3s4.5-1.2,5.6,1.5c2.7,6.4,4.6,13.2,8.2,19.2,1.2,2-.8,2.6-1.7,3.5-8.8,8.6-18.6,16.1-29.2,22.4-15.9,9.5-32.4,17.7-50.2,22.9-9.5-3.6-18.9-7.6-28-12.1-1.6-.8-3.6-1-4.2-3.1.6-5.8-.6-6.9-5.8-4.9-10.9,4-22.4,6.3-33,11.1-2.1,1-5,1.3-5,4.7-5.6,1.7-11.1,3.5-16.7,5.1-1.5.4-2.2.8-1.8,2.7,1.3,5.7,1.5,11.6,3.4,17.1-8.2.6-16,3.1-24,4.8-1.6.4-3.2,1-4,2.6-11.6,0-23.3.5-34.8-.2-12.2-.8-24.5-.3-36.5-2.8-.5-.1-1.1-.6-1.6-.9,2.2-2.3.2-3.5-1.2-4.9,2.5-12,7.4-23.2,11-34.9.9-3.1,1.5-6.1,1.2-9.3,3.2-4,2.5-6.2-2.4-6.9-6.3-.9-12.6.7-18.9.6-12.3-.2-24.6.2-36.8,1.4-2.4-.3-4.7-.6-7-.9-1.3-2.8,1.5-2.3,2.5-2.8,11.9-5.7,23.3-12.2,34.3-19.3,2.9-1.9,5.9-3.9,8.1-6.6,1-1.2,1.6-2.5.8-4.1-.8-1.6-2.4-1.6-3.9-1.6-2.3,0-4.1,1.2-6,2.2-13.9,7.8-28.1,15-41.6,23.5-5.1,3.2-9.6,4.1-15,3.2-1.5-.2-3.2-.4-3.8,1.4-.7,2.2,1,3,2.5,3.7,5.6,2.5,11.5,4.2,17.5,5.4.2,2.5-.9,4.3-2.6,6-2.9,2.8-5.7,5.8-8.5,8.7-9.1-1-17.7-4.9-26.9-5.1-1.9-.1-4.4-1-5,1.7-.6,2.6,2,3,3.7,4,3.4,2,7.2,3.1,11.9,4.6-7.3,4.5-14.3,7.7-21.3,10.7-3.2,1.3-6.8,2-9.8,3.6-7.1,3.8-12.8,1.3-18.3-3.1-6.4-5-11.5-11.1-16.3-17.5-14-18.6-25.3-38.7-32.7-60.8,5.8.7,10-3,14.5-5.6,15.6-9.2,29.7-20.5,43-32.8,2.1-1.9,4-3.8,1.6-6.7.7-1.5.5-3.1.4-4.6,15.8-4.8,32-6,48.3-4.8,22.1,1.6,44.3,4.4,66.6,3.7,6.4-.2,12.7-.1,19,.4,9.6.7,19.3.6,28.9.2,21.4-.9,42.8-3.3,64.2-3.4,31.6-.1,63.1,3.2,94.7,2.1,8-.3,16.1,1.7,24.2,2.6.3,2.8,2.1,4.8,4.2,6.5,7.3,6.1,13.6,13.2,20.1,20.1,1.7,1.8,1.7,2.7-.2,4.2-3.3,2.6-6.5,5.3-9.7,7.9-1.3,1.1-3.6,1.9-2.9,4.1.8,2.4,3.1,1.2,4.8,1.2,2.8,4.3,6.1,8.2,9.9,11.7-.7,1-1.6,2-.6,2.9Zm-152.9,24.6c-2.9.6-3.7,2-3.6,4.7.1,3.4.1,6.9.9,10.3-6,1.7-12,3.4-18.1,5.1-2.1.6-4.7.9-4.3,3.8.4,3.1,3.1,2.8,5.5,2.5,10.6-1.4,20.7-4.5,30.7-8.1,10.6-3.8,21.4-6.9,31.6-11.8,2-1,4.9-1.7,4.2-4.7s-3.5-1.5-5.5-1.8c-2.2-7.9-7.4-14.2-11.1-21.3-.6-1.2-2-1.8-3.4-1.7,1.5-1.8,4.1-3.4,2.5-6.3-1.5-2.8-4.4-2.1-6.7-1.5-14.7,3.7-29.3,7.6-43.9,11.5-2.6.7-5,1.8-7.2,3.3-1.5,1-2.5,2.2-2.3,4.1.3,2,1.8,3.2,3.6,3.7,3,.8,6,.6,8.9-.2,8.2-2.2,16.5-4.2,24.6-6.6,3-.9,4.6-.6,5.9,2.3,1.1,2.5,2.5,5.1,5.1,6.6,0,.3.1.5.2.8-5.9,1.7-11.6,3.7-17.6,5.3Z"/>
    <path class="cls-39" d="m542.61,1215.7c4.4,5.7,8.6,11,12.7,16.4,1.1,1.5,2.1,2.2,4.1,1.6,8.3-2.3,16.7-4.4,24.7-7.5,17.8-5.3,34.3-13.5,50.2-22.9,10.6-6.3,20.4-13.8,29.2-22.4.9-.9,2.9-1.5,1.7-3.5-3.6-6-5.5-12.8-8.2-19.2-1.1-2.7-2.7-3.9-5.6-1.5s-6.3,4.3-9.5,6.3c-1,.6-2.4.9-3.3-.1-1-1.1-.1-2.2.6-3.1,5.7-4.6,11.4-9.2,17.1-13.8,2.8-2.3,5.5-4.8,8.4-7.1,1.4-1.1,3.1-1.4,4.5.1,1.5,1.6.7,3.2-.5,4.4-1.7,1.7-3.4,3.2-5.3,4.6-1.3,1-1.6,1.6-.8,3.2,2.6,5,4.8,10.2,7.2,15.3.6,1.4.8,3,3.1,2.1,3.7-1.4,6.4.6,8.8,3.1,5.4,5.4,9.1,11.9,13,18.3,4.5,7.3,6.6,14.5.3,21.9-.1.1.2.6.3,1,6,.4,12-.3,17.9,1,4.6,1,9.3,1.9,11,7.2,1.7,5.2-.8,9.4-4.3,13-5,5.1-10.3,10-16,14.3-17.3,13.2-36.1,24.4-55.1,35-10.5,5.9-21.1,11.5-32.6,15-4.6,1.4-9.3,1.8-13.7-.2-5.2-2.3-10.3-5-14.2-9.2-2.9-3.2-5.4-4-9.4-2-4.4,2.3-9.2,3.2-13.8.2-13.7-8.9-24-20.9-31.7-35.2-1.8-3.4-1.5-6.7,2.4-9.5,3.1-2.2,6.1-4.3,9.9-5.6-4-5.9-9-10.7-12.1-16.8-.8-1.6-2.3-.9-3.5-.6-5.2,1.1-10.4,2.3-15.6,3.4-2.2.4-4.6,1.1-6.5-1,0-3.4,2.8-3.7,5-4.7,10.6-4.7,22.1-7,33-11.1,5.2-2,6.5-.9,5.8,4.9-3,1.6-5.8,3.6-9.2,4.7Zm124.2,22.4c-1.4.4-3,.6-4.1-.9-1-1.3-.3-2.5.3-3.7,2.1-4.3,5.6-7.5,9.1-10.5,5.8-5.1,10.8-10.8,16-16.4,1.9-2.1,2.7-4.1,1-6.7-4.1-6.5-8.2-12.9-13.1-18.8-1.7-2.1-2.9-2.7-5.1-.5-30.1,30.2-66.4,50-106.8,62.7-5.2,1.6-10.4,3.2-15.7,4.6-2.9.7-2.8,2.2-1.5,4.3,6.1,9.6,13.4,18,22.5,24.9,2.4,1.8,5,1.5,7.5.5,4.5-1.8,8.8-3.8,13.2-5.7,4.2.7,7.6-1.9,11.4-2.6,1.5-.3,2.8-.9,4.3-1.1,2.1-.3,4.4-1,6,1,1.8,2.2,0,4-1,5.8-5.1,1.8-10.2,3.6-15.4,5.5,8,9,22,9.1,32.6.3,3.8-.3,6.9-2.6,10-4.3,23.4-12.8,47-25.4,67.9-42.3,2.6-2.1,5-4.4,7.4-6.7,2.4-2.4,2.8-4.1-1.4-4.7-6.7-1-13.3-.9-19.9-.6-4.1-1.7-7.1-.3-9.7,3-1.9,2.4-4.2,4.5-6.4,6.8-2.8,2.4-5.5,4.9-9.1,6.1Z"/>
    <path class="cls-18" d="m337.71,1217.8c2.7.5,5.8.9,5.5,4.4-.3,3.9-3.8,3.5-6.6,3.4-6.4-.3-12.6-1.1-18.8-2.6-1.4-.4-2.7-1.2-4.1.4-8.1,8.9-19,13.2-29.8,17.5-3.2,1.3-4.3,2.2-3.2,5.9,2.7,9.8,1.6,11.9-7.6,16.6-7.2,3.7-14.7,7-22.3,9.9-5.3,2-9.8,1.3-13.9-2.4-2.9-2.6-5.9-5.1-9.4-8.2-.8,9.1-1.8,17.5-4.3,25.6-3.6,11.6-10.7,13.6-19.5,5.3-7-6.5-12.5-14.2-17.7-22.2-17-26-26.2-55.1-34.3-84.7-4-14.5-1.8-19.3,11.3-26.9,1.1-.7,2.4-1.2,3.5-1.9,3.6-2.1,7.5-3.8,6.6-9.2-.2-1.1.6-2.6,1.3-3.7,4.2-6.4,9.3-12.2,15.5-16.8,4.3-3.1,9.1-2.3,11.6,2.3,1.9,3.4,3.5,2.8,6.1,1.5,17.6-8.6,35.2-17.3,51.2-28.8,2.7-2,5.4-2.5,8,.2.1,1.6.4,3.1-.4,4.6-9.3,8.9-20.9,14.4-32.1,20.4-9,4.9-18.1,9.6-27.8,13.1-2.4.8-2.5,2-1.7,4.1,1,2.5,1.8,5,2.6,7.5,7.4,22.2,18.7,42.2,32.7,60.8,4.9,6.4,10,12.5,16.3,17.5,5.6,4.4,11.3,6.9,18.3,3.1,3-1.6,6.6-2.2,9.8-3.6,7-3,14-6.2,21.3-10.7-4.6-1.5-8.4-2.6-11.9-4.6-1.7-1-4.3-1.4-3.7-4,.6-2.7,3.1-1.7,5-1.7,9.3.2,17.8,4.1,26.9,5.1,5,1.9,10.4,1.9,15.6,2.8Zm-119,33.4c-2.6-2.9-4.3-6.3-5.9-9.8-.7-1.5-.8-2.8.4-4.1,1.3-1.5,2.8-1.1,4.5-.5,2.9,1.1,4.3,3.5,5.8,5.9,5.1,8.1,11.3,15.2,18.7,21.3,1.9,1.6,3.6,2,5.9,1,7.6-3.3,15.2-6.6,22.9-9.9,2.7-1.2,3.1-2.9,2.4-5.6-.7-2.6-1.2-4.2-4.6-4.5-10.7-1.1-18.8-7.4-25.7-15-21-23-37.4-48.8-46.4-78.9-1.3-4.3-3.1-8.6-.1-12.9.4-.6.5-1.4-.2-1.7-.6-.2-1.5-.2-1.9.1-3.8,2.7-6.7,6.4-9.9,9.8-3.9,4-2.7,8.1-1.4,12.5.9,3.3,1.8,6.8,1.1,10.3-.4,2.1-1.2,3.8-3.7,4-2.2.2-3.7-.6-4.9-2.6-1.2-2.1-1.7-6.2-3.5-6-2.4.3-4.5,3-6.8,4.7-4.3,3.1-6.2,6.7-4.4,12.4,7.8,25.1,14.5,50.6,27.1,73.9,6.1,11.3,12.8,22.3,21.6,31.7,3.6,3.8,4.5,3.5,6-1.6,2.9-9.8,4.2-19.8,4.9-30,.4-1.9-.8-3.1-1.9-4.5Z"/>
    <path class="cls-17" d="m470.51,1256.6c7.3-.7,14.6-1.1,21.8-1.7,2.5-.2,3.5.6,3.7,3.2.5,6.1,1.1,12.2,2,18.3.5,3.2-1.7,3.2-3.5,3.4-4.8.5-9.4,1.9-14,3.2-1.7.5-3.5.8-3.2,3,.2,2.2,2.1,2.2,3.8,2.2,2.9,0,5.9-.1,8.9-.1,3,2.4,6.8,3.1,10.1,4.7,2.2,1.1,5.1,1.4,5.9,4.5-26.3,4-52.4,10-79.1,11.8-7.9.5-15.9,1.3-23.8,1.9.7-6.3,1.5-12.5,2-18.8.2-3,2.4-3.2,4.4-3.8,2.7-.7,4.7-1.9,4.6-5,0-3.1-2.2-4.5-4.7-5.1-5.3-1.3-10.7-2.4-16.1-3.2-2.3-.4-3.1-1-3.4-3.3-1-6.8-2.3-13.4-3.5-20.1,1.6-1.3,4.2.5,5.6-1.6.5.3,1,.8,1.6.9,12.1,2.6,24.3,2,36.5,2.8,11.6.8,23.2.2,34.8.2.9,2.9,3,2.9,5.6,2.6Z"/>
    <path class="cls-39" d="m378.01,1262.9c0,3.5.6,7,.6,10.4.1,5.2,2.3,5.8,6.7,5.8,6.2,0,7.8,2.1,7.8,8.3-.1,6.2-1.5,12.2-2.8,18.2-.7,3.6-.2,5.9,4.3,5.5,2.8-.3,5.7-.2,8.5-.2,7.9-.6,15.9-1.4,23.8-1.9,26.7-1.7,52.7-7.7,79.1-11.8,2.2.5,5.6-1.8,6.1,2.2.5,3.9-3.3,3.4-5.5,4.4-.6.3-1.3.2-2,.3-21.6,3.5-43.2,7.5-64.9,10.6-17.1,2.4-34.2,5.7-51.6,4.4-5.7-.4-8-2.7-8.2-8.4-.3-5.8.9-11.6,1.8-17.3.5-3,.2-4.5-3.6-4.4-7.8.3-9.8-1.5-10.9-9-1.3-8.7-1.6-17.6-1.4-26.4.1-4.1,1.9-7.1,6.1-8,2.1-.5,2.9-1.5,2.9-3.8.1-11.7,2.1-23.2,5.3-34.4,1-3.4.3-4.4-3.2-4.2-9.2.5-18.3-.5-27.3-2.1-2.9-.5-5.2-1.3-4.6-4.9,12.3-1.2,24.5-1.6,36.8-1.4,6.3.1,12.6-1.5,18.9-.6,4.8.7,5.6,2.9,2.4,6.9-1.3.3-2.7,1-3.9.8-8-1.1-9.8,4-11.2,10.3-2.2,9.4-3.8,18.8-5.3,28.3-.6,4.2.4,5,4.1,4.5,1.3-.2,2.7.2,4,.3,1.4,1.4,3.4,2.6,1.2,4.9-1.4,2.1-3.9.3-5.6,1.6q-8.5,2.7-8.4,11.1Z"/>
    <path class="cls-19" d="m333.31,1200.3c-6-1.2-11.9-2.8-17.5-5.4-1.5-.7-3.2-1.6-2.5-3.7.6-1.8,2.3-1.7,3.8-1.4,5.4.9,9.9,0,15-3.2,13.4-8.5,27.7-15.8,41.6-23.5,1.9-1,3.7-2.2,6-2.2,1.5,0,3.1,0,3.9,1.6.8,1.5.2,2.9-.8,4.1-2.3,2.7-5.2,4.7-8.1,6.6-11.1,7.1-22.5,13.6-34.3,19.3-1,.5-3.8.1-2.5,2.8.7,3.8-1.9,4.5-4.6,5Z"/>
    <path class="cls-39" d="m468.91,1251.4c8-1.7,15.8-4.2,24-4.8,11.3.3,11.5.6,12.3,12.2.5,6.8.6,13.6,1.1,20.4.4,4.9-1.9,6.1-5.6,6.9-3.5.7-7.1,1.3-10.7,2-2.9.1-5.9.1-8.9.1-1.7,0-3.5,0-3.8-2.2-.2-2.2,1.5-2.5,3.2-3,4.6-1.3,9.2-2.7,14-3.2,1.8-.1,4-.2,3.5-3.4-.9-6.1-1.5-12.2-2-18.3-.2-2.7-1.2-3.4-3.7-3.2-7.3.6-14.6,1-21.8,1.7-2.6.3-4.7.3-5.6-2.6.8-1.6,2.4-2.2,4-2.6Z"/>
    <path class="cls-12" d="m621.61,1103.3c7,5.4,13.3,11.5,18.8,18.4,3.2,3.9,5.5,6.7,9.9,1.6,1.2-1.5,3.3-1.7,4.9-.2,1.7,1.6,1.5,3.7.2,5.4-1.1,1.4-2.5,2.7-3.9,3.8-7.1,5.7-14.7,10.8-22.3,15.7-1.7,0-4,1.2-4.8-1.2-.8-2.2,1.5-3,2.9-4.1,3.2-2.7,6.4-5.4,9.7-7.9,1.9-1.4,1.9-2.4.2-4.2-6.5-6.9-12.8-14-20.1-20.1-2.1-1.7-3.9-3.6-4.2-6.5,2.5-4.3,5.6-3.3,8.7-.7Z"/>
    <path class="cls-2" d="m508.81,1172.6c2.8,6,1.4,8.3-5.6,8.4-2.6-1.5-4-4-5.1-6.6-1.3-2.8-2.9-3.2-5.9-2.3-8.2,2.5-16.4,4.5-24.6,6.6-2.9.8-6,1-8.9.2-1.9-.5-3.3-1.6-3.6-3.7-.2-1.9.8-3.1,2.3-4.1,2.2-1.5,4.6-2.6,7.2-3.3,14.6-3.9,29.2-7.8,43.9-11.5,2.3-.6,5.2-1.3,6.7,1.5,1.5,2.9-1.1,4.4-2.6,6.3q-6.7,2.7-3.8,8.5Z"/>
    <path class="cls-9" d="m265.11,1114.6c-13.3,12.2-27.4,23.6-43,32.8-4.4,2.6-8.7,6.3-14.5,5.6-.9-2.5-1.6-5.1-2.6-7.5-.8-2-.6-3.2,1.7-4.1,9.6-3.5,18.8-8.2,27.8-13.1,11.2-6,22.8-11.4,32.1-20.4,2.4,2.9.5,4.8-1.5,6.7Z"/>
    <path class="cls-26" d="m512.11,1191.9c4.9-1.6,9.9-3.3,14.9-4.9,2,.3,4.8-1.2,5.5,1.8.7,3-2.2,3.7-4.2,4.7-10.2,4.9-21,8-31.6,11.8-10,3.5-20.1,6.7-30.7,8.1-2.4.4-5.1.7-5.5-2.5-.4-2.8,2.2-3.2,4.3-3.8,6-1.7,12.1-3.4,18.1-5.1,10.1-2.4,19.5-6.7,29.2-10.1Z"/>
    <path class="cls-9" d="m401.71,1210.4c-3.6,11.7-8.5,22.9-11,34.9-1.4-.1-2.7-.5-4-.3-3.7.5-4.7-.4-4.1-4.5,1.5-9.5,3.1-18.9,5.3-28.3,1.5-6.3,3.2-11.4,11.2-10.3,1.3.2,2.6-.5,3.9-.8.3,3.2-.3,6.3-1.3,9.3Z"/>
    <path class="cls-9" d="m556.01,1214c9.1,4.5,18.5,8.5,28,12.1-8,3.2-16.4,5.2-24.7,7.5-2,.6-3-.1-4.1-1.6-4.1-5.4-8.3-10.7-12.7-16.4,3.5-1,6.3-3,9.3-4.6.6,2.1,2.6,2.2,4.2,3Z"/>
    <path class="cls-20" d="m503.01,1181c6.9-.1,8.4-2.3,5.6-8.4q-2.7-5.8,3.9-8.5c1.5-.1,2.8.5,3.4,1.7,3.7,7.1,9,13.4,11.1,21.3-4.9,1.6-9.9,3.3-14.9,4.9-2.8-3.6-2.2-10.1-8.9-10.1-.1-.3-.2-.6-.2-.9Z"/>
    <path class="cls-32" d="m564.11,1243.1c40.4-12.8,76.6-32.5,106.8-62.7,2.1-2.2,3.4-1.6,5.1.5,4.9,5.9,9,12.3,13.1,18.8,1.6,2.6.9,4.6-1,6.7-5.1,5.7-10.2,11.4-16,16.4-3.5,3.1-7,6.2-9.1,10.5-.6,1.2-1.3,2.4-.3,3.7,1.1,1.5,2.7,1.3,4.1.9,3.6-1,6.3-3.6,9.1-5.9,1.3.7,2.6,1.4,4.1.3,4.2-3.2,8.8-5.8,12-10.1,6.7-.3,13.3-.4,19.9.6,4.3.7,3.9,2.4,1.4,4.7-2.4,2.3-4.8,4.6-7.4,6.7-20.8,16.9-44.5,29.5-67.9,42.3-3.2,1.7-6.2,4-10,4.3-.4-2.8-2.6-2.4-4.5-2.8-4.2-.9-8.9-.3-12.7-3.1,1-1.8,2.8-3.6,1-5.8-1.6-2-3.9-1.3-6-1-1.5.2-2.9.8-4.3,1.1-3.9.7-7.3,3.3-11.4,2.6-8.7-9.5-17.4-19.1-26-28.7Z"/>
    <path class="cls-25" d="m576.91,1277.5c-2.5,1-5.1,1.3-7.5-.5-9.1-6.9-16.4-15.3-22.5-24.9-1.3-2-1.4-3.5,1.5-4.3,5.3-1.4,10.5-3.1,15.7-4.6,8.7,9.5,17.3,19.1,26,28.6-4.4,1.9-8.7,4-13.2,5.7Z"/>
    <path class="cls-25" d="m595.41,1280.4c5.2-1.9,10.3-3.7,15.4-5.5,3.8,2.9,8.4,2.3,12.7,3.1,1.9.4,4.2,0,4.5,2.8-10.6,8.8-24.7,8.7-32.6-.4Z"/>
    <path class="cls-25" d="m682.31,1225.2c2.6-3.4,5.6-4.8,9.7-3-3.2,4.4-7.8,7-12,10.1-1.5,1.1-2.8.4-4.1-.3,2.2-2.2,4.5-4.3,6.4-6.8Z"/>
    <path class="cls-10" d="m215.61,1285.9c-1.5,5.1-2.4,5.4-6,1.6-8.8-9.5-15.5-20.4-21.6-31.7-12.6-23.3-19.3-48.8-27.1-73.9-1.8-5.7.1-9.3,4.4-12.4,2.3-1.7,4.4-4.5,6.8-4.7,1.8-.1,2.2,3.9,3.5,6,1.2,2,2.7,2.8,4.9,2.6,2.5-.2,3.3-1.9,3.7-4,.7-3.6-.1-7-1.1-10.3-1.3-4.4-2.4-8.5,1.4-12.5,3.3-3.3,6.1-7,9.9-9.8.5-.3,1.4-.3,1.9-.1.8.3.6,1.1.2,1.7-2.9,4.3-1.2,8.6.1,12.9,9,30.1,25.4,55.9,46.4,78.9,6.9,7.6,15,14,25.7,15,3.4.3,3.9,1.9,4.6,4.5.7,2.7.3,4.4-2.4,5.6-7.7,3.2-15.3,6.5-22.9,9.9-2.3,1-4,.6-5.9-1-7.4-6.1-13.6-13.2-18.7-21.3-1.5-2.4-2.9-4.8-5.8-5.9-1.7-.6-3.1-1-4.5.5-1.2,1.2-1.1,2.6-.4,4.1,1.6,3.5,3.3,6.9,5.9,9.8,1.1,1.2,2.4,2.4,2,4.3-.6,10.2-2,20.2-5,30.2Z"/>
    <path class="cls-25" d="m389.91,1271.9c.4,2.3,1.2,3,3.4,3.3,5.4.8,10.8,1.9,16.1,3.2,2.4.6,4.6,2,4.7,5.1,0,3.1-2,4.3-4.6,5-2,.5-4.2.8-4.4,3.8-.5,6.3-1.3,12.5-2,18.8-2.8.1-5.7-.1-8.5.2-4.5.4-5.1-2-4.3-5.5,1.3-6,2.8-12,2.8-18.2s-1.6-8.3-7.8-8.3c-4.4,0-6.7-.6-6.7-5.8,0-3.4-.6-6.9-.6-10.4q-.1-8.6,8.4-11.3c1.2,6.7,2.5,13.4,3.5,20.1Z"/>
  </g>
  <g>
    <path class="cls-40" d="m279.83,913.31c-14.2,26.5-28.4,53.1-40.8,80.6-1,2.3-2.1,2.3-4.2,1.5-28-11.1-55.4-23.7-82.6-36.6-2.1-1-4.5-1.5-2.3-4.9,26.7-41,50.2-84,79.1-123.6,9.6-13,19.9-25.5,30.5-37.6,11.2,6.7,20,15.6,26.5,27.1,10.1,17.9,17.2,36.6,17.8,57.4-8.8,11.5-17,23.3-24,36.1Z"/>
    <path class="cls-46" d="m306.33,885.41c-3.2,7.9-8.7,14.5-12.6,22.1-15.2,30-30.6,59.9-46,89.8-1.2,2.5-.6,3.3,1.4,4.7,7.1,4.8,7.1,5.4,3,12.8-5.1,9.3-10.1,18.8-16.1,27.6-1.9,2.7-1.6,4.5.1,7.1,4.2,6.2,8.9,12.1,12.5,18.7,2.7,4.8,2.9,9.6.3,14.3-4.4,7.9-9.9,15-17.5,20.2-6.5,4.4-13.2,4.8-20.4,1.8-5.7-2.3-10.2-6.2-14.5-10.4-.9-.9-1.6-2.6-3.2-1.8-1.2.5-.9,2-1.1,3.1-2,12.1-7.7,16.5-20,15.3-11.5-1.1-22.1-5-31.8-11.1-3.8-2.3-7.7-4.7-8.7-9.7-.2-1.1-1.1-1.5-2.2-1.7-12.5-2-20.1-11-28-19.6-2-2.2-4-4.7-4.5-7.7-.6-3.3-2.2-5.5-4.7-7.7-12.4-10.9-12.7-22-1.4-34,6.5-6.9,12.9-13.9,19.2-21,1.1-1.2,2.3-2.7,2.5-4.2,2-12.6,7.1-24.2,11.9-35.9,3.3-8.1,4.2-8.7,12.5-5.9,1.9.6,3.3,1.1,4.6-1.1,7.8-12.8,15.9-25.4,23.5-38.3,17.6-30.1,35.8-59.8,56.8-87.6,9.7-12.9,20.2-25.2,32.4-35.9,1.4-1.3,3.1-3.2,5.2-1.9,2.5,1.4.5,3.5.1,5.3-10.7,12.2-21,24.6-30.5,37.6-28.9,39.5-52.4,82.6-79.1,123.6-2.2,3.4.2,3.9,2.3,4.9,27.2,12.9,54.6,25.5,82.6,36.6,2.1.8,3.1.8,4.2-1.5,12.4-27.5,26.5-54.1,40.8-80.6,6.9-12.8,15.1-24.6,23.9-36.1,5.4,1.4,3.7,5.2,2.5,8.2Zm-194.5,126.4c-5.4,5.5-10.6,11.2-16.4,16.4-5.4,4.8-4,14.9,2.3,18.3,3.9,2.1,4.4-2.1,6.2-3.9.8-.8,1.7-1.6,2.4-2.5,1-1.3,2.1-2.2,3.8-1.6,1.7.7,1.7,2.3,1.5,3.8-3.7,4.2-5,9.3-5.8,14.5-.8,5.1,3.8,7.9,6.5,11.2,3.5,4.3,7.9,7.6,12.5,10.6,5.2,3.4,7.7,2.5,10-3.3,2-4.9,4-9.7,5.8-14.7.6-1.7,1.5-2.6,3.2-2.1,1.8.5,2.6,1.9,1.7,3.4-.9,1.6.5,2.9.1,4.3-1.7.4-1.6,1.8-1.8,3.1-.9,4.6-1.7,9.1-2.7,13.6-.7,3.2-.3,5.9,2.7,7.8,10.2,6.6,21,11.2,33.5,10.7,2.3-.1,4.8,0,5.6-2.9,3.1-6.4,1.6-13.7,3.9-20.3,1-3.1,1.7-6.6,6-6.8.7,6.6,3.5,12,9.6,15.2,9.4,12.4,20.5,14.9,29.4,4.6,2.5-2.9,5.2-5.7,7.4-8.8,4-5.7,3.9-7.9-.2-13.5-4-5.4-8-10.7-12-16-3-4-2.9-7.8-.2-12,5.8-9.2,11.2-18.6,17-27.7,1.9-3,1-4-1.8-5-35.8-12.7-70.5-28.2-104.7-44.6-3.2-1.5-4.6-.8-5.9,2.3-5.6,12.8-10.7,25.8-14.5,39.3-.4,1.2-.9,2.5-1.4,3.7-1.1.9-2.4,1.7-3.7,2.9Z"/>
    <path class="cls-32" d="m100.03,1031.51c4.6-5.6,9.3-11.2,13.9-16.8,1.4-1.7,2.6-3.5,1.8-5.9.5-1.2,1-2.4,1.4-3.7,3.8-13.5,8.9-26.5,14.5-39.3,1.3-3.1,2.7-3.9,5.9-2.3,34.2,16.5,68.9,31.9,104.7,44.6,2.8,1,3.7,2,1.8,5-5.8,9.2-11.2,18.6-17,27.7-2.7,4.3-2.8,8,.2,12,4,5.3,8.1,10.6,12,16,4.2,5.7,4.2,7.9.2,13.5-2.3,3.1-4.9,5.9-7.4,8.8-9,10.3-20,7.8-29.4-4.6-.3-3.8-.3-7.6-.9-11.3-.9-5.5-3.4-6.6-8.7-4-4.3.2-4.9,3.7-6,6.8-2.3,6.6-.8,13.9-3.9,20.3-11.6-3.7-22.8-8.1-33.4-14.1-2.9-1.6-4-3.5-3.8-6.7.2-3.8-.1-7.7-.2-11.5.4-1.4-1-2.7-.1-4.3.8-1.5,0-2.9-1.7-3.4s-2.6.4-3.2,2.1c-1.8,4.9-3.9,9.8-5.8,14.7-.9-.2-2.2,0-2.8-.5-6.5-5.5-13.5-10.5-18.9-17.3-1.9-2.3-2.1-4-.7-6.5,1.6-2.8,3.2-6-.7-8.6.2-1.6.3-3.1-1.5-3.8-1.7-.6-2.8.3-3.8,1.6-.7.9-1.6,1.7-2.4,2.5-6.4-1.7-8.1-6.2-4.1-11Z"/>
    <path class="cls-38" d="m177.33,1101.21c-12.5.5-23.3-4.2-33.5-10.7-3-1.9-3.4-4.6-2.7-7.8,1-4.5,1.9-9.1,2.7-13.6.2-1.3.1-2.7,1.8-3.1.1,3.9.4,7.7.2,11.5-.1,3.2.9,5,3.8,6.7,10.6,6.1,21.8,10.5,33.4,14.1-.8,2.9-3.3,2.8-5.7,2.9Z"/>
    <path class="cls-28" d="m125.03,1078.51c-4.6-3-9.1-6.4-12.5-10.6-2.8-3.3-7.3-6.1-6.5-11.2.9-5.2,2.1-10.4,5.8-14.5,3.9,2.5,2.3,5.7.7,8.6-1.4,2.5-1.2,4.1.7,6.5,5.5,6.7,12.4,11.7,18.9,17.3.6.6,1.8.4,2.8.5-2.3,5.8-4.8,6.7-9.9,3.4Z"/>
    <path class="cls-29" d="m97.93,1046.41c-6.3-3.4-7.7-13.5-2.3-18.3,5.8-5.2,11-10.9,16.4-16.4,1.1-1.1,2.3-1.9,3.5-2.8.8,2.4-.4,4.2-1.8,5.9-4.6,5.6-9.3,11.2-13.9,16.8-3.8,4.7-2.1,9.3,4.3,10.9-1.8,1.7-2.3,6-6.2,3.9Z"/>
    <path class="cls-4" d="m192.93,1071.11c5.3-2.5,7.8-1.5,8.7,4,.6,3.7.6,7.5.9,11.3-6.1-3.2-8.8-8.6-9.6-15.3Z"/>
  </g>
</svg>